<?xml version="1.0" standalone="no"?>
<!DOCTYPE svg PUBLIC "-//W3C//DTD SVG 20010904//EN"
 "http://www.w3.org/TR/2001/REC-SVG-20010904/DTD/svg10.dtd">
<svg version="1.0" xmlns="http://www.w3.org/2000/svg"
 width="800.000000pt" height="800.000000pt" viewBox="0 0 800.000000 800.000000"
 preserveAspectRatio="xMidYMid meet">
<metadata>
Created by potrace 1.14, written by Peter Selinger 2001-2017
</metadata>
<g transform="translate(0.000000,800.000000) scale(0.100000,-0.100000)"
fill="#000000" stroke="none">
<path d="M0 4000 l0 -4000 4000 0 4000 0 0 4000 0 4000 -4000 0 -4000 0 0
-4000z m1771 970 c111 -11 184 -33 319 -98 235 -113 407 -309 497 -570 25 -72
27 -88 27 -262 1 -210 -6 -253 -65 -375 -93 -192 -171 -290 -314 -394 -96 -70
-139 -92 -252 -132 -229 -81 -451 -79 -686 5 -97 35 -184 82 -227 120 -14 13
-41 33 -61 45 -20 11 -56 46 -79 76 -24 31 -48 59 -54 63 -25 15 -105 155
-148 257 -66 158 -74 428 -18 596 82 245 264 459 483 566 202 99 350 125 578
103z m1344 -965 l0 -970 -25 0 -25 0 -3 960 c-1 528 0 966 3 973 3 7 15 12 27
10 l23 -3 0 -970z m1102 844 c30 -15 53 -35 62 -54 33 -67 22 -201 -18 -233
-88 -70 -193 -74 -273 -11 -50 40 -68 76 -68 139 0 152 150 232 297 159z
m-615 -16 c9 -21 38 -84 64 -140 45 -96 64 -123 64 -89 0 8 27 71 61 140 54
112 63 126 86 126 24 0 24 -1 11 -22 -8 -13 -18 -36 -22 -53 -7 -29 -62 -151
-109 -242 -34 -67 -59 -60 -100 30 -63 132 -77 166 -77 177 0 6 -11 33 -25 60
l-25 50 27 0 c23 0 31 -7 45 -37z m838 -143 l0 -180 -25 0 -25 0 0 180 0 180
25 0 25 0 0 -180z m341 169 c153 -52 151 -279 -4 -336 -18 -6 -76 -12 -129
-12 l-98 -1 0 180 0 180 99 0 c54 0 113 -5 132 -11z m813 -660 c49 -12 96 -50
120 -97 31 -61 16 -160 -33 -215 -41 -47 -141 -62 -226 -34 -43 15 -54 24 -77
66 -35 61 -38 133 -8 191 22 43 50 65 108 86 46 16 62 17 116 3z m1491 0 c49
-12 68 -28 56 -47 -6 -10 -19 -10 -57 -2 -50 12 -110 6 -131 -12 -7 -6 -13
-21 -13 -34 0 -26 28 -48 75 -58 17 -4 53 -16 82 -27 43 -17 54 -27 63 -55 32
-97 -108 -162 -237 -109 -39 16 -41 18 -31 41 10 21 13 22 27 10 21 -19 98
-36 132 -29 39 7 63 37 55 66 -7 29 -51 51 -116 61 -145 22 -121 198 28 205
13 1 43 -4 67 -10z m-3226 -33 c23 -16 48 -41 55 -55 51 -101 4 -228 -95 -257
-24 -8 -88 -14 -141 -14 l-98 0 0 181 0 181 118 -4 c112 -3 121 -5 161 -32z
m419 12 c-3 -22 -8 -23 -105 -26 l-103 -3 0 -54 0 -55 90 0 c83 0 90 -1 90
-20 0 -19 -7 -20 -90 -20 l-90 0 0 -60 0 -60 105 0 c98 0 105 -1 105 -20 0
-19 -7 -20 -135 -20 l-135 0 0 180 0 180 136 0 c135 0 135 0 132 -22z m112
-38 c16 -33 30 -65 30 -72 0 -8 16 -47 36 -88 l35 -74 29 59 c16 33 35 76 41
95 6 19 22 59 37 88 21 44 30 52 53 52 l27 0 -59 -127 c-32 -71 -59 -134 -59
-142 0 -7 -10 -31 -22 -52 -17 -31 -28 -39 -50 -39 -30 0 -47 23 -66 90 -5 19
-35 88 -66 153 l-55 117 29 0 c26 0 33 -7 60 -60z m590 35 l0 -25 -100 0 -100
0 0 -55 0 -55 90 0 c83 0 90 -1 90 -20 0 -19 -7 -20 -90 -20 l-90 0 0 -60 0
-60 100 0 c93 0 100 -1 100 -20 0 -19 -7 -20 -130 -20 l-130 0 0 180 0 180
130 0 130 0 0 -25z m150 -135 l0 -160 100 0 c93 0 100 -1 100 -20 0 -19 -7
-20 -125 -20 l-125 0 0 180 0 180 25 0 25 0 0 -160z m921 137 c19 -13 40 -39
48 -61 13 -33 13 -44 0 -79 -22 -62 -56 -81 -150 -86 l-79 -3 0 -54 c0 -53 0
-54 -30 -54 l-30 0 0 180 0 180 104 0 c91 0 107 -3 137 -23z m397 1 c-3 -22
-8 -23 -105 -26 l-103 -3 0 -54 0 -55 90 0 c83 0 90 -1 90 -20 0 -19 -7 -20
-90 -20 l-90 0 0 -60 0 -60 105 0 c98 0 105 -1 105 -20 0 -19 -7 -20 -130 -20
l-130 0 0 180 0 180 131 0 c130 0 130 0 127 -22z m313 11 c85 -45 100 -135 35
-198 l-34 -33 21 -37 c11 -20 29 -46 40 -58 l20 -23 -29 0 c-24 0 -36 10 -69
55 -39 55 -40 55 -92 55 l-53 0 0 -55 c0 -54 0 -55 -30 -55 l-30 0 0 180 0
180 101 0 c55 0 109 -5 120 -11z m-2922 -673 c33 -17 43 -37 30 -57 -7 -12
-13 -11 -41 3 -59 30 -86 31 -143 4 -56 -25 -68 -40 -79 -95 -8 -46 23 -115
66 -141 43 -26 113 -26 155 -1 26 17 33 18 43 6 16 -20 -4 -53 -38 -62 -15 -5
-56 -8 -92 -8 -51 0 -73 5 -103 24 -72 44 -100 168 -57 251 44 86 168 122 259
76z m336 13 c55 -16 92 -44 115 -89 43 -84 12 -213 -60 -255 -27 -15 -53 -20
-111 -20 -89 0 -116 14 -160 83 -23 36 -29 57 -29 99 0 30 6 66 14 81 21 40
69 82 112 97 48 17 68 18 119 4z m2696 1 c19 -6 45 -21 58 -33 19 -21 20 -25
6 -37 -12 -10 -19 -10 -37 2 -44 29 -89 30 -145 4 -54 -26 -66 -40 -77 -95 -8
-46 23 -115 66 -141 43 -26 113 -26 155 -1 28 18 33 18 44 5 10 -13 8 -20 -14
-42 -25 -24 -34 -26 -105 -27 -69 0 -84 3 -119 27 -54 35 -77 94 -71 178 5 75
27 106 98 143 58 29 85 32 141 17z m-2381 -63 c31 -34 66 -78 77 -97 12 -19
38 -51 57 -69 l36 -35 0 132 0 132 25 0 25 0 -2 -182 c-4 -217 -8 -224 -85
-129 -26 33 -75 93 -108 135 l-60 74 -5 -131 c-5 -128 -6 -132 -27 -135 l-23
-3 0 185 c0 220 2 223 90 123z m588 41 c-3 -22 -8 -23 -105 -26 l-103 -3 0
-59 0 -60 90 0 c89 0 90 0 90 -25 0 -25 -1 -25 -90 -25 l-89 0 -3 -72 c-3 -67
-5 -73 -25 -76 l-23 -3 0 185 0 186 131 0 c130 0 130 0 127 -22z m330 0 c-3
-22 -8 -23 -100 -26 l-98 -3 0 -54 0 -55 90 0 c89 0 90 0 90 -25 0 -25 -1 -25
-90 -25 l-90 0 0 -55 0 -55 100 0 100 0 0 -25 0 -25 -130 0 -130 0 0 185 0
185 131 0 c130 0 130 0 127 -22z m320 2 c46 -28 74 -77 68 -119 -7 -43 -31
-80 -62 -91 l-25 -10 41 -54 c46 -64 49 -76 16 -76 -24 0 -64 43 -87 94 -11
24 -17 26 -70 26 l-58 0 -3 -57 c-3 -51 -6 -58 -25 -61 l-23 -3 0 185 0 186
98 0 c79 0 103 -4 130 -20z m410 -2 c-3 -22 -8 -23 -100 -26 l-98 -3 0 -54 0
-55 85 0 c84 0 85 0 85 -25 0 -25 -1 -25 -85 -25 l-85 0 0 -55 0 -55 100 0
100 0 0 -25 0 -25 -130 0 -130 0 0 185 0 185 131 0 c130 0 130 0 127 -22z
m178 -25 c22 -27 58 -73 81 -103 23 -30 55 -68 72 -84 l31 -30 0 132 0 132 25
0 25 0 -2 -182 c-3 -161 -5 -183 -20 -186 -16 -3 -98 89 -193 216 l-40 53 -5
-133 -5 -133 -27 -3 -28 -3 0 185 0 186 23 0 c16 0 37 -15 63 -47z m972 25
c-3 -22 -8 -23 -105 -26 l-103 -3 0 -54 0 -55 90 0 c89 0 90 0 90 -25 0 -25
-1 -25 -90 -25 l-90 0 0 -55 0 -55 105 0 105 0 0 -25 0 -25 -130 0 -130 0 0
185 0 185 131 0 c130 0 130 0 127 -22z"/>
<path d="M1535 4683 c-68 -15 -160 -52 -226 -90 -243 -141 -377 -446 -313
-712 9 -36 37 -108 62 -159 79 -158 205 -265 387 -329 102 -37 263 -43 365
-15 127 35 217 83 298 159 179 168 255 401 203 625 -71 309 -350 531 -661 527
-52 -1 -104 -3 -115 -6z"/>
<path d="M4079 4831 c-48 -15 -68 -31 -86 -69 -23 -48 -21 -97 6 -149 17 -34
28 -43 57 -49 53 -10 132 1 154 21 35 31 53 96 41 143 -11 39 -68 102 -94 102
-7 0 -21 2 -32 5 -11 2 -32 0 -46 -4z"/>
<path d="M4600 4694 l0 -136 90 4 c82 3 92 5 117 30 21 22 27 38 30 85 4 68
-8 98 -56 130 -28 19 -48 23 -107 23 l-74 0 0 -136z"/>
<path d="M5495 4150 c-58 -11 -95 -59 -95 -125 0 -90 54 -145 142 -145 83 0
138 60 138 147 -1 94 -74 142 -185 123z"/>
<path d="M3640 4015 l0 -137 79 3 c61 3 86 9 108 25 57 42 67 155 18 212 -22
25 -30 27 -114 30 l-91 4 0 -137z"/>
<path d="M5870 4075 l0 -75 63 0 c34 0 72 3 84 6 26 7 47 55 39 88 -11 46 -32
56 -112 56 l-74 0 0 -75z"/>
<path d="M6600 4074 l0 -76 80 4 c92 4 100 10 100 75 0 61 -17 73 -106 73
l-74 0 0 -76z"/>
<path d="M4100 3484 c-59 -20 -90 -39 -98 -63 -20 -52 -21 -79 -6 -126 20 -58
60 -85 124 -85 58 0 103 28 130 79 23 46 24 53 9 104 -15 55 -107 108 -159 91z"/>
<path d="M5550 3400 l0 -80 60 0 c72 0 105 14 120 51 28 67 -18 109 -120 109
l-60 0 0 -80z"/>
</g>
</svg>
