<?xml version="1.0" encoding="UTF-8"?><svg xmlns="http://www.w3.org/2000/svg" xmlns:xlink="http://www.w3.org/1999/xlink" viewBox="0 0 356.65 104.98"><defs><style>.e,.f{fill:#fff;}.g{fill:url(#d);}.f{stroke:#fcfcfc;stroke-linecap:round;stroke-miterlimit:10;stroke-width:3px;}</style><radialGradient id="d" cx="62.35" cy="32.43" fx="62.35" fy="32.43" r="49.18" gradientTransform="translate(-13.42 17.42) scale(1.05 1.04)" gradientUnits="userSpaceOnUse"><stop offset="0" stop-color="#000"/><stop offset=".02" stop-color="#130724"/><stop offset=".05" stop-color="#250f43"/><stop offset=".08" stop-color="#33145e"/><stop offset=".11" stop-color="#3f1972"/><stop offset=".14" stop-color="#461c81"/><stop offset=".18" stop-color="#4b1e89"/><stop offset=".25" stop-color="#4d1f8c"/><stop offset=".33" stop-color="#51248e"/><stop offset=".44" stop-color="#5c3395"/><stop offset=".55" stop-color="#704ca1"/><stop offset=".68" stop-color="#8b6fb2"/><stop offset=".81" stop-color="#af9dc7"/><stop offset=".94" stop-color="#d9d3e1"/><stop offset="1" stop-color="#eee"/></radialGradient></defs><g id="a"/><g id="b"><g id="c"><ellipse class="g" cx="52.34" cy="51.25" rx="52.34" ry="50.83"/><line class="f" x1="129.65" y1="1.5" x2="129.65" y2="103"/><g><path class="e" d="M161.77,25.73l-8.62-19.6h3.02l7.92,18.09h-1.74l7.98-18.09h2.8l-8.6,19.6h-2.77Z"/><path class="e" d="M184.29,25.95c-1.49,0-2.88-.25-4.16-.76-1.28-.5-2.38-1.21-3.32-2.11-.93-.9-1.66-1.96-2.18-3.18-.52-1.21-.78-2.54-.78-3.98s.26-2.76,.78-3.98c.52-1.21,1.25-2.27,2.18-3.18,.93-.9,2.03-1.61,3.3-2.11,1.27-.5,2.66-.76,4.17-.76s2.87,.25,4.14,.74c1.27,.49,2.37,1.2,3.3,2.1,.93,.91,1.66,1.97,2.17,3.19s.77,2.55,.77,3.99-.26,2.79-.77,4c-.51,1.21-1.24,2.27-2.17,3.18-.93,.91-2.03,1.61-3.3,2.1-1.27,.49-2.65,.74-4.14,.74Zm-.03-2.49c1.1,0,2.11-.19,3.04-.56,.92-.37,1.73-.9,2.41-1.58,.68-.68,1.21-1.48,1.6-2.39s.57-1.91,.57-3-.19-2.08-.57-2.98c-.38-.9-.91-1.7-1.6-2.39-.68-.69-1.48-1.22-2.41-1.6-.92-.37-1.94-.56-3.04-.56s-2.09,.19-3.01,.56c-.92,.38-1.73,.91-2.42,1.6-.69,.69-1.23,1.49-1.61,2.39-.38,.91-.57,1.9-.57,2.98s.19,2.08,.57,3,.92,1.71,1.61,2.39c.69,.68,1.5,1.21,2.42,1.58s1.93,.56,3.01,.56Z"/><path class="e" d="M198.96,25.73V6.13h2.8V25.73h-2.8Z"/><path class="e" d="M207.64,25.73V6.13h8.26c2.09,0,3.93,.41,5.53,1.23,1.6,.82,2.84,1.97,3.72,3.45,.89,1.47,1.33,3.18,1.33,5.12s-.44,3.65-1.33,5.12c-.89,1.47-2.13,2.62-3.72,3.44-1.6,.82-3.44,1.23-5.53,1.23h-8.26Zm2.8-2.44h5.29c1.62,0,3.03-.31,4.21-.93,1.19-.62,2.1-1.48,2.76-2.59,.65-1.11,.98-2.39,.98-3.85s-.33-2.76-.98-3.86-1.57-1.96-2.76-2.58c-1.19-.62-2.59-.92-4.21-.92h-5.29v14.73Z"/><path class="e" d="M156.12,61.73v-19.6h8.26c2.09,0,3.93,.41,5.53,1.23,1.6,.82,2.84,1.97,3.72,3.45,.89,1.47,1.33,3.18,1.33,5.12s-.44,3.65-1.33,5.12c-.89,1.47-2.13,2.62-3.72,3.44-1.6,.82-3.44,1.23-5.53,1.23h-8.26Zm2.8-2.44h5.29c1.62,0,3.03-.31,4.21-.93,1.19-.62,2.1-1.48,2.76-2.59,.65-1.11,.98-2.39,.98-3.85s-.33-2.76-.98-3.86-1.57-1.96-2.76-2.58c-1.19-.62-2.59-.92-4.21-.92h-5.29v14.73Z"/><path class="e" d="M182.05,59.29h11.42v2.44h-14.22v-19.6h13.83v2.44h-11.03v14.73Zm-.25-8.71h10.08v2.38h-10.08v-2.38Z"/><path class="e" d="M203.38,61.73l-8.62-19.6h3.02l7.92,18.09h-1.74l7.98-18.09h2.8l-8.6,19.6h-2.77Z"/><path class="e" d="M220.04,59.29h11.42v2.44h-14.22v-19.6h13.83v2.44h-11.03v14.73Zm-.25-8.71h10.08v2.38h-10.08v-2.38Z"/><path class="e" d="M236,61.73v-19.6h2.8v17.16h10.61v2.44h-13.41Z"/><path class="e" d="M261.12,61.95c-1.49,0-2.88-.25-4.16-.76s-2.38-1.21-3.32-2.11c-.93-.9-1.66-1.96-2.18-3.18s-.78-2.54-.78-3.98,.26-2.76,.78-3.98c.52-1.21,1.25-2.27,2.18-3.18,.93-.9,2.04-1.61,3.3-2.11,1.27-.5,2.66-.76,4.17-.76s2.87,.25,4.14,.74c1.27,.49,2.37,1.2,3.3,2.1,.93,.91,1.66,1.97,2.17,3.19,.51,1.22,.77,2.55,.77,3.99s-.26,2.79-.77,4c-.51,1.21-1.24,2.27-2.17,3.18-.93,.91-2.04,1.61-3.3,2.1-1.27,.49-2.65,.74-4.14,.74Zm-.03-2.49c1.1,0,2.11-.19,3.04-.56s1.73-.9,2.41-1.58c.68-.68,1.21-1.48,1.6-2.39s.57-1.91,.57-3-.19-2.08-.57-2.98c-.38-.9-.92-1.7-1.6-2.39-.68-.69-1.48-1.22-2.41-1.6-.92-.37-1.94-.56-3.04-.56s-2.09,.19-3.01,.56c-.92,.38-1.73,.91-2.42,1.6-.69,.69-1.23,1.49-1.61,2.39-.38,.91-.57,1.9-.57,2.98s.19,2.08,.57,3,.92,1.71,1.61,2.39c.69,.68,1.5,1.21,2.42,1.58s1.93,.56,3.01,.56Z"/><path class="e" d="M275.79,61.73v-19.6h7.64c1.72,0,3.18,.27,4.4,.81,1.21,.54,2.15,1.33,2.8,2.35,.65,1.03,.98,2.25,.98,3.67s-.33,2.64-.98,3.65c-.65,1.02-1.59,1.8-2.8,2.35-1.21,.55-2.68,.83-4.4,.83h-6.1l1.26-1.32v7.25h-2.8Zm2.8-6.97l-1.26-1.4h6.02c1.79,0,3.15-.38,4.07-1.15s1.39-1.85,1.39-3.25-.46-2.48-1.39-3.25-2.28-1.15-4.07-1.15h-6.02l1.26-1.4v11.59Z"/><path class="e" d="M298.53,59.29h11.42v2.44h-14.22v-19.6h13.83v2.44h-11.03v14.73Zm-.25-8.71h10.08v2.38h-10.08v-2.38Z"/><path class="e" d="M314.49,61.73v-19.6h7.64c1.72,0,3.18,.27,4.4,.81,1.21,.54,2.15,1.33,2.8,2.35,.65,1.03,.98,2.25,.98,3.67s-.33,2.64-.98,3.65c-.65,1.02-1.59,1.8-2.8,2.34-1.21,.54-2.68,.81-4.4,.81h-6.1l1.26-1.29v7.25h-2.8Zm2.8-6.97l-1.26-1.37h6.02c1.79,0,3.15-.39,4.07-1.16,.92-.78,1.39-1.86,1.39-3.26s-.46-2.48-1.39-3.25-2.28-1.15-4.07-1.15h-6.02l1.26-1.4v11.59Zm10.3,6.97l-4.98-7.11h3l5.04,7.11h-3.05Z"/><path class="e" d="M340.55,61.95c-1.49,0-2.92-.23-4.28-.69-1.36-.46-2.44-1.05-3.22-1.78l1.04-2.18c.75,.65,1.7,1.19,2.86,1.62s2.36,.64,3.61,.64c1.14,0,2.06-.13,2.77-.39s1.23-.62,1.57-1.08c.34-.46,.5-.97,.5-1.55,0-.67-.22-1.21-.66-1.62s-1.01-.74-1.71-.99-1.47-.47-2.31-.66c-.84-.19-1.69-.41-2.53-.66-.85-.25-1.62-.57-2.32-.96-.7-.39-1.26-.92-1.69-1.58s-.64-1.52-.64-2.56,.27-1.94,.8-2.79,1.35-1.53,2.46-2.04,2.52-.77,4.24-.77c1.14,0,2.27,.15,3.39,.45,1.12,.3,2.09,.73,2.91,1.29l-.92,2.24c-.84-.56-1.73-.97-2.66-1.22s-1.84-.38-2.72-.38c-1.1,0-2.01,.14-2.72,.42-.71,.28-1.23,.65-1.55,1.12-.33,.47-.49,.99-.49,1.57,0,.69,.22,1.24,.66,1.65,.44,.41,1.01,.74,1.71,.98,.7,.24,1.47,.46,2.31,.66,.84,.2,1.68,.42,2.53,.66,.85,.24,1.62,.56,2.32,.95,.7,.39,1.26,.91,1.69,1.57,.43,.65,.64,1.49,.64,2.52s-.27,1.91-.81,2.76-1.38,1.53-2.51,2.04c-1.13,.51-2.55,.77-4.27,.77Z"/><path class="e" d="M164.88,97.95c-1.49,0-2.87-.25-4.13-.74-1.26-.5-2.35-1.2-3.28-2.1-.92-.9-1.65-1.96-2.17-3.18-.52-1.21-.78-2.55-.78-4s.26-2.79,.78-4c.52-1.21,1.25-2.27,2.18-3.18,.93-.9,2.03-1.61,3.29-2.1,1.26-.49,2.64-.74,4.13-.74s2.91,.26,4.19,.77c1.28,.51,2.37,1.27,3.26,2.28l-1.82,1.77c-.75-.79-1.59-1.37-2.52-1.75-.93-.38-1.93-.57-3-.57s-2.12,.19-3.07,.56c-.94,.38-1.76,.9-2.45,1.57-.69,.67-1.23,1.47-1.61,2.39s-.57,1.93-.57,3.01,.19,2.09,.57,3.01,.92,1.72,1.61,2.39c.69,.67,1.51,1.2,2.45,1.57,.94,.37,1.96,.56,3.07,.56s2.06-.19,3-.57c.93-.38,1.77-.98,2.52-1.78l1.82,1.76c-.9,1.01-1.98,1.78-3.26,2.3-1.28,.52-2.68,.78-4.21,.78Z"/><path class="e" d="M184.79,97.95c-1.49,0-2.88-.25-4.16-.76-1.28-.5-2.38-1.21-3.32-2.11-.93-.9-1.66-1.96-2.18-3.18-.52-1.21-.78-2.54-.78-3.98s.26-2.76,.78-3.98c.52-1.21,1.25-2.27,2.18-3.18,.93-.9,2.03-1.61,3.3-2.11,1.27-.5,2.66-.76,4.17-.76s2.87,.25,4.14,.74c1.27,.49,2.37,1.2,3.3,2.1,.93,.91,1.66,1.97,2.17,3.19s.77,2.55,.77,3.99-.26,2.79-.77,4c-.51,1.21-1.24,2.27-2.17,3.18-.93,.91-2.03,1.61-3.3,2.1-1.27,.49-2.65,.74-4.14,.74Zm-.03-2.49c1.1,0,2.11-.19,3.04-.56,.92-.37,1.73-.9,2.41-1.58,.68-.68,1.21-1.48,1.6-2.39s.57-1.91,.57-3-.19-2.08-.57-2.98c-.38-.9-.91-1.7-1.6-2.39-.68-.69-1.48-1.22-2.41-1.6-.92-.37-1.94-.56-3.04-.56s-2.09,.19-3.01,.56c-.92,.38-1.73,.91-2.42,1.6-.69,.69-1.23,1.49-1.61,2.39-.38,.91-.57,1.9-.57,2.98s.19,2.08,.57,3,.92,1.71,1.61,2.39c.69,.68,1.5,1.21,2.42,1.58s1.93,.56,3.01,.56Z"/><path class="e" d="M199.46,97.73v-19.6h2.3l12.96,16.1h-1.2v-16.1h2.8v19.6h-2.3l-12.96-16.1h1.2v16.1h-2.8Z"/><path class="e" d="M225,97.73h-2.8v-19.6h13.83v2.44h-11.03v17.16Zm-.28-10.33h10.11v2.41h-10.11v-2.41Z"/><path class="e" d="M242.78,95.29h11.42v2.44h-14.22v-19.6h13.83v2.44h-11.03v14.73Zm-.25-8.71h10.08v2.38h-10.08v-2.38Z"/><path class="e" d="M258.74,97.73v-19.6h7.64c1.72,0,3.18,.27,4.4,.81,1.21,.54,2.15,1.33,2.8,2.35,.65,1.03,.98,2.25,.98,3.67s-.33,2.64-.98,3.65c-.65,1.02-1.59,1.8-2.8,2.34-1.21,.54-2.68,.81-4.4,.81h-6.1l1.26-1.29v7.25h-2.8Zm2.8-6.97l-1.26-1.37h6.02c1.79,0,3.15-.39,4.07-1.16,.92-.78,1.39-1.86,1.39-3.26s-.46-2.48-1.39-3.25-2.28-1.15-4.07-1.15h-6.02l1.26-1.4v11.59Zm10.3,6.97l-4.98-7.11h3l5.04,7.11h-3.05Z"/><path class="e" d="M281.89,95.29h11.42v2.44h-14.22v-19.6h13.83v2.44h-11.03v14.73Zm-.25-8.71h10.08v2.38h-10.08v-2.38Z"/><path class="e" d="M297.85,97.73v-19.6h2.3l12.96,16.1h-1.2v-16.1h2.8v19.6h-2.3l-12.96-16.1h1.2v16.1h-2.8Z"/><path class="e" d="M329.35,97.95c-1.49,0-2.87-.25-4.13-.74-1.26-.5-2.35-1.2-3.28-2.1-.92-.9-1.65-1.96-2.17-3.18-.52-1.21-.78-2.55-.78-4s.26-2.79,.78-4,1.25-2.27,2.18-3.18c.93-.9,2.03-1.61,3.29-2.1,1.26-.49,2.64-.74,4.13-.74s2.91,.26,4.19,.77,2.37,1.27,3.26,2.28l-1.82,1.77c-.75-.79-1.59-1.37-2.52-1.75s-1.93-.57-3-.57-2.12,.19-3.07,.56c-.94,.38-1.76,.9-2.45,1.57-.69,.67-1.23,1.47-1.61,2.39s-.57,1.93-.57,3.01,.19,2.09,.57,3.01,.92,1.72,1.61,2.39c.69,.67,1.51,1.2,2.45,1.57,.94,.37,1.96,.56,3.07,.56s2.06-.19,3-.57,1.77-.98,2.52-1.78l1.82,1.76c-.9,1.01-1.98,1.78-3.26,2.3-1.28,.52-2.68,.78-4.21,.78Z"/><path class="e" d="M343.63,95.29h11.42v2.44h-14.22v-19.6h13.83v2.44h-11.03v14.73Zm-.25-8.71h10.08v2.38h-10.08v-2.38Z"/></g></g></g></svg>