<?xml version="1.0" encoding="utf-8"?>
<!-- Generator: Adobe Illustrator 26.0.3, SVG Export Plug-In . SVG Version: 6.00 Build 0)  -->
<svg version="1.1" id="Layer_1" xmlns="http://www.w3.org/2000/svg" xmlns:xlink="http://www.w3.org/1999/xlink" x="0px" y="0px"
	 viewBox="0 0 414.86 187.222" enable-background="new 0 0 414.86 187.222" xml:space="preserve">
<circle stroke="#FFFFFF" stroke-width="0.25" stroke-miterlimit="10" cx="1753.314" cy="-14.286" r="50"/>
<circle fill="#FFFFFF" stroke="#000000" stroke-width="0.25" stroke-miterlimit="10" cx="1753.314" cy="-14.286" r="40"/>
<circle cx="1753.314" cy="-14.286" r="30"/>
<rect x="1003.209" y="-155.111" stroke="#FFFFFF" stroke-miterlimit="10" width="499.85" height="500"/>
<g>
	<g>
		<path d="M-750.06,361.463l-45.216-100.8h5.472l43.632,97.488h-2.736l43.632-97.488h5.184l-45.216,100.8H-750.06z"/>
		<path d="M-638.749,362.039c-7.394,0-14.257-1.271-20.593-3.816c-6.336-2.543-11.857-6.121-16.56-10.729
			c-4.705-4.608-8.352-10.007-10.944-16.2c-2.592-6.192-3.888-12.936-3.888-20.232c0-7.294,1.296-14.04,3.888-20.231
			c2.593-6.192,6.239-11.592,10.944-16.2c4.702-4.608,10.224-8.184,16.56-10.728c6.336-2.543,13.248-3.816,20.736-3.816
			c7.392,0,14.256,1.273,20.592,3.816c6.336,2.544,11.831,6.119,16.488,10.728c4.655,4.608,8.303,9.985,10.944,16.128
			c2.639,6.145,3.96,12.913,3.96,20.304c0,7.297-1.321,14.04-3.96,20.232c-2.642,6.192-6.289,11.592-10.944,16.2
			c-4.657,4.607-10.152,8.186-16.488,10.729C-624.35,360.768-631.262,362.039-638.749,362.039z M-638.749,357.574
			c6.718,0,12.96-1.152,18.72-3.455c5.76-2.305,10.775-5.566,15.048-9.792c4.271-4.224,7.583-9.145,9.937-14.761
			c2.351-5.615,3.527-11.783,3.527-18.504c0-6.718-1.177-12.888-3.527-18.504c-2.354-5.615-5.666-10.534-9.937-14.76
			c-4.272-4.224-9.288-7.488-15.048-9.792s-12.002-3.456-18.72-3.456c-6.624,0-12.816,1.152-18.576,3.456
			s-10.777,5.568-15.048,9.792c-4.273,4.226-7.585,9.169-9.937,14.832c-2.354,5.666-3.528,11.808-3.528,18.432
			c0,6.721,1.175,12.889,3.528,18.504c2.352,5.616,5.663,10.537,9.937,14.761c4.271,4.226,9.288,7.488,15.048,9.792
			C-651.565,356.422-645.373,357.574-638.749,357.574z"/>
		<path d="M-559.983,361.463v-100.8h4.896v100.8H-559.983z"/>
		<path d="M-518.225,361.463v-100.8h38.88c10.751,0,20.111,2.185,28.08,6.552c7.968,4.369,14.185,10.32,18.648,17.856
			c4.464,7.537,6.696,16.199,6.696,25.991s-2.232,18.457-6.696,25.992c-4.464,7.538-10.681,13.489-18.648,17.856
			c-7.969,4.369-17.329,6.553-28.08,6.553H-518.225z M-513.328,356.998h33.696c9.886,0,18.504-1.967,25.848-5.904
			c7.344-3.936,13.007-9.359,16.992-16.271c3.982-6.912,5.976-14.832,5.976-23.761c0-8.928-1.993-16.848-5.976-23.76
			c-3.985-6.912-9.648-12.334-16.992-16.271c-7.344-3.936-15.962-5.904-25.848-5.904h-33.696V356.998z"/>
	</g>
</g>
<g>
	<g>
		<path d="M-807.366,419.604h20.736v2.208h-23.184v-33.6h22.464v2.208h-20.016V419.604z M-807.654,403.668h18.192v2.159h-18.192
			V403.668z"/>
		<path d="M-777.703,421.812v-33.6h2.064l23.952,30.575h-1.104v-30.575h2.448v33.6h-2.016l-24-30.576h1.104v30.576H-777.703z"/>
		<path d="M-732.199,421.812V390.42h-12.096v-2.208h26.64v2.208h-12.096v31.392H-732.199z"/>
		<path d="M-709.16,419.604h20.736v2.208h-23.184v-33.6h22.464v2.208h-20.016V419.604z M-709.448,403.668h18.192v2.159h-18.192
			V403.668z"/>
		<path d="M-679.496,421.812v-33.6h12.048c2.816,0,5.232,0.448,7.248,1.344c2.016,0.896,3.568,2.184,4.656,3.864
			c1.088,1.68,1.633,3.72,1.633,6.119c0,2.337-0.545,4.345-1.633,6.024s-2.641,2.976-4.656,3.888s-4.432,1.368-7.248,1.368h-10.704
			l1.104-1.151v12.144H-679.496z M-677.048,409.812l-1.104-1.152h10.704c3.615,0,6.359-0.799,8.232-2.399
			c1.871-1.6,2.809-3.84,2.809-6.721c0-2.911-0.938-5.159-2.809-6.743c-1.873-1.584-4.617-2.376-8.232-2.376h-10.704l1.104-1.2
			V409.812z M-656.169,421.812l-8.734-12.192h2.783l8.736,12.192H-656.169z"/>
		<path d="M-638.505,421.812V390.42h-12.096v-2.208h26.64v2.208h-12.096v31.392H-638.505z"/>
		<path d="M-623.529,421.812l15.456-33.6h2.447l15.456,33.6h-2.64l-14.592-32.064h1.056l-14.544,32.064H-623.529z M-617.865,412.355
			l0.815-2.063h20.112l0.816,2.063H-617.865z"/>
		<path d="M-584.073,421.812v-33.6h2.447v33.6H-584.073z"/>
		<path d="M-569.914,421.812v-33.6h2.063l23.952,30.575h-1.104v-30.575h2.448v33.6h-2.016l-24-30.576h1.104v30.576H-569.914z"/>
		<path d="M-530.842,421.812v-33.6h2.063l15.6,26.928h-1.104l15.552-26.928h2.017l0.048,33.6h-2.4l-0.048-29.904h0.672
			l-14.736,25.44h-1.199l-14.784-25.44h0.72v29.904H-530.842z"/>
		<path d="M-482.507,419.604h20.736v2.208h-23.184v-33.6h22.464v2.208h-20.017V419.604z M-482.795,403.668h18.192v2.159h-18.192
			V403.668z"/>
		<path d="M-452.843,421.812v-33.6h2.063l23.952,30.575h-1.104v-30.575h2.448v33.6h-2.016l-24-30.576h1.104v30.576H-452.843z"/>
		<path d="M-407.339,421.812V390.42h-12.096v-2.208h26.64v2.208h-12.096v31.392H-407.339z"/>
	</g>
</g>
<radialGradient id="SVGID_1_" cx="-278.8803" cy="162.8158" r="49.1807" gradientTransform="matrix(1.0547 0 0 1.0431 33.2348 -11.1693)" gradientUnits="userSpaceOnUse">
	<stop  offset="0" style="stop-color:#92278F"/>
	<stop  offset="1" style="stop-color:#000000"/>
</radialGradient>
<ellipse fill="url(#SVGID_1_)" cx="-260.9" cy="158.664" rx="52.342" ry="50.83"/>
<g>
	
		<radialGradient id="SVGID_00000173153241336253130650000008310509853319513532_" cx="-688.4848" cy="550.5542" r="49.181" gradientTransform="matrix(1.0547 0 0 1.0431 33.2348 -11.1693)" gradientUnits="userSpaceOnUse">
		<stop  offset="0" style="stop-color:#92278F"/>
		<stop  offset="1" style="stop-color:#000000"/>
	</radialGradient>
	<path fill="url(#SVGID_00000173153241336253130650000008310509853319513532_)" d="M-640.568,563.113
		c0,28.073-23.435,50.831-52.342,50.831s-52.342-22.758-52.342-50.831c0-28.072,23.435-50.83,52.342-50.83
		S-640.568,535.041-640.568,563.113z"/>
	<g>
		<path d="M-801.414,613.514l-45.216-100.8h5.472l43.632,97.488h-2.736l43.632-97.488h5.184l-45.216,100.8H-801.414z"/>
		<path d="M-614.215,613.514v-100.8h4.897v100.8H-614.215z"/>
		<path d="M-572.456,613.514v-100.8h38.88c10.75,0,20.111,2.185,28.08,6.552c7.968,4.369,14.185,10.32,18.648,17.856
			c4.463,7.537,6.696,16.199,6.696,25.991s-2.233,18.457-6.696,25.992c-4.464,7.538-10.681,13.489-18.648,17.856
			c-7.969,4.369-17.33,6.552-28.08,6.552H-572.456z M-567.56,609.05h33.697c9.886,0,18.504-1.967,25.848-5.904
			c7.344-3.935,13.006-9.359,16.992-16.271c3.982-6.912,5.976-14.832,5.976-23.761c0-8.928-1.993-16.848-5.976-23.76
			c-3.986-6.912-9.648-12.334-16.992-16.271c-7.344-3.936-15.962-5.904-25.848-5.904h-33.697V609.05z"/>
	</g>
</g>
<g>
	<path d="M-868.756,671.225h20.736v2.208h-23.184v-33.6h22.464v2.208h-20.016V671.225z M-869.044,655.289h18.192v2.159h-18.192
		V655.289z"/>
	<path d="M-839.092,673.433v-33.6h2.064l23.952,30.575h-1.104v-30.575h2.448v33.6h-2.016l-24-30.576h1.104v30.576H-839.092z"/>
	<path d="M-793.589,673.433v-31.392h-12.096v-2.208h26.64v2.208h-12.096v31.392H-793.589z"/>
	<path d="M-770.549,671.225h20.736v2.208h-23.184v-33.6h22.464v2.208h-20.016V671.225z M-770.837,655.289h18.192v2.159h-18.192
		V655.289z"/>
	<path d="M-740.886,673.433v-33.6h12.048c2.816,0,5.232,0.448,7.248,1.344c2.016,0.896,3.568,2.184,4.656,3.864
		c1.088,1.68,1.633,3.72,1.633,6.119c0,2.337-0.545,4.345-1.633,6.024c-1.088,1.68-2.641,2.976-4.656,3.888
		c-2.016,0.912-4.432,1.368-7.248,1.368h-10.704l1.104-1.151v12.143H-740.886z M-738.438,661.433l-1.104-1.152h10.704
		c3.615,0,6.359-0.799,8.232-2.399c1.871-1.6,2.809-3.84,2.809-6.721c0-2.911-0.938-5.159-2.809-6.743
		c-1.873-1.584-4.617-2.376-8.232-2.376h-10.704l1.104-1.2V661.433z M-717.558,673.433l-8.734-12.192h2.783l8.736,12.192H-717.558z"
		/>
	<path d="M-700.374,673.433v-31.392h-12.096v-2.208h26.64v2.208h-12.096v31.392H-700.374z"/>
	<path d="M-687.078,673.433l15.456-33.6h2.447l15.456,33.6h-2.64l-14.592-32.064h1.056l-14.544,32.064H-687.078z M-681.414,663.977
		l0.815-2.064h20.112l0.816,2.064H-681.414z"/>
	<path d="M-647.622,673.433v-33.6h2.447v33.6H-647.622z"/>
	<path d="M-633.462,673.433v-33.6h2.063l23.952,30.575h-1.104v-30.575h2.448v33.6h-2.016l-24-30.576h1.104v30.576H-633.462z"/>
	<path d="M-594.391,673.433v-33.6h2.064l15.6,26.928h-1.104l15.552-26.928h2.017l0.048,33.6h-2.4l-0.048-29.904h0.672l-14.736,25.44
		h-1.199l-14.784-25.44h0.72v29.904H-594.391z"/>
	<path d="M-546.056,671.225h20.736v2.208h-23.184v-33.6h22.464v2.208h-20.017V671.225z M-546.344,655.289h18.192v2.159h-18.192
		V655.289z"/>
	<path d="M-516.392,673.433v-33.6h2.063l23.952,30.575h-1.104v-30.575h2.448v33.6h-2.016l-24-30.576h1.103v30.576H-516.392z"/>
	<path d="M-470.888,673.433v-31.392h-12.096v-2.208h26.64v2.208h-12.096v31.392H-470.888z"/>
</g>
<path fill="#EA1C1C" stroke="#FFFFFF" stroke-width="10" stroke-miterlimit="10" d="M-642.409,139.865
	c0-13.329,5.08-26.656,15.245-36.818c3.297-3.299,6.931-6.053,10.787-8.279c-8.027-4.637-17.026-6.966-26.032-6.966
	c-9.005,0-18.004,2.329-26.032,6.966c3.856,2.227,7.49,4.98,10.787,8.279C-647.489,113.209-642.409,126.536-642.409,139.865z"/>
<path fill="#6600FF" stroke="#FFFFFF" stroke-width="10" stroke-miterlimit="10" d="M-597.311,113.833
	c4.637-8.029,6.965-17.028,6.965-26.032c-9.003,0-18.002,2.329-26.031,6.966c3.855,2.227,7.488,4.98,10.787,8.279
	C-602.292,106.343-599.538,109.977-597.311,113.833z"/>
<path fill="#6600FF" stroke="#FFFFFF" stroke-width="10" stroke-miterlimit="10" d="M-642.409,139.865
	c13.329,0,26.656-5.08,36.818-15.245c3.299-3.297,6.052-6.931,8.279-10.787c-2.227-3.856-4.98-7.49-8.279-10.787
	c-3.299-3.299-6.931-6.053-10.787-8.279c-3.856,2.227-7.49,4.98-10.787,8.279C-637.329,113.209-642.409,126.536-642.409,139.865z"/>
<path fill="#0033CC" stroke="#FFFFFF" stroke-width="10" stroke-miterlimit="10" d="M-597.311,113.833
	c-2.227,3.856-4.98,7.49-8.279,10.787c-10.163,10.165-23.489,15.245-36.818,15.245c13.329,0,26.656,5.08,36.818,15.245
	c3.299,3.297,6.052,6.931,8.279,10.787c4.639-8.029,6.965-17.029,6.965-26.032C-590.346,130.861-592.672,121.862-597.311,113.833z"
	/>
<path fill="#00FFD0" stroke="#FFFFFF" stroke-width="10" stroke-miterlimit="10" d="M-597.311,165.896
	c-2.227,3.855-4.98,7.49-8.279,10.787c-3.296,3.298-6.931,6.052-10.787,8.279c8.029,4.637,17.028,6.965,26.031,6.965
	C-590.346,182.925-592.674,173.925-597.311,165.896z"/>
<path fill="#00FFD0" stroke="#FFFFFF" stroke-width="10" stroke-miterlimit="10" d="M-597.311,165.896
	c-2.227-3.856-4.98-7.49-8.279-10.787c-10.163-10.165-23.489-15.245-36.818-15.245c0,13.329,5.08,26.656,15.245,36.818
	c3.297,3.298,6.931,6.052,10.787,8.279c3.855-2.227,7.49-4.981,10.787-8.279C-602.292,173.386-599.538,169.752-597.311,165.896z"/>
<path fill="#00FF00" stroke="#FFFFFF" stroke-width="10" stroke-miterlimit="10" d="M-616.377,184.962
	c-3.856-2.227-7.49-4.981-10.787-8.279c-10.165-10.163-15.245-23.489-15.245-36.818c0,13.329-5.08,26.656-15.245,36.818
	c-3.297,3.298-6.931,6.052-10.787,8.279c8.027,4.639,17.026,6.965,26.032,6.965C-633.403,191.928-624.404,189.601-616.377,184.962z"
	/>
<path fill="#FF7300" stroke="#FFFFFF" stroke-width="10" stroke-miterlimit="10" d="M-668.44,94.767
	c-8.029-4.637-17.028-6.966-26.031-6.966c0,9.005,2.329,18.007,6.967,26.036c2.229-3.856,4.98-7.492,8.277-10.79
	C-675.929,99.748-672.296,96.994-668.44,94.767z"/>
<path fill="#FF7300" stroke="#FFFFFF" stroke-width="10" stroke-miterlimit="10" d="M-642.409,139.865
	c0-13.329-5.08-26.656-15.245-36.818c-3.297-3.299-6.931-6.053-10.787-8.279c-3.856,2.227-7.488,4.98-10.787,8.279
	c-3.297,3.298-6.048,6.935-8.277,10.79c2.229,3.856,4.98,7.488,8.277,10.783C-669.064,134.785-655.738,139.865-642.409,139.865z"/>
<path fill="#99FF00" stroke="#FFFFFF" stroke-width="10" stroke-miterlimit="10" d="M-687.504,165.896
	c-4.639,8.029-6.967,17.028-6.967,26.031c9.003,0,18.002-2.329,26.031-6.965c-3.856-2.227-7.49-4.981-10.787-8.279
	C-682.526,173.384-685.279,169.752-687.504,165.896z"/>
<path fill="#99FF00" stroke="#FFFFFF" stroke-width="10" stroke-miterlimit="10" d="M-642.409,139.865
	c-13.329,0-26.656,5.08-36.818,15.245c-3.299,3.297-6.052,6.931-8.277,10.787c2.225,3.855,4.979,7.488,8.277,10.787
	c3.296,3.298,6.931,6.052,10.787,8.279c3.856-2.227,7.49-4.981,10.787-8.279C-647.489,166.52-642.409,153.194-642.409,139.865z"/>
<path fill="#FFDA00" stroke="#FFFFFF" stroke-width="10" stroke-miterlimit="10" d="M-642.409,139.865
	c-13.329,0-26.656-5.08-36.818-15.245c-3.297-3.295-6.048-6.927-8.277-10.783c-9.276,16.062-9.278,36.005,0,52.06
	c2.225-3.856,4.979-7.49,8.277-10.787C-669.064,144.945-655.738,139.865-642.409,139.865z"/>
<g>
	<g>
		<path d="M583.424,110.962l-44.353-100.8h15.552l40.752,93.023h-8.928l41.041-93.023h14.398l-44.207,100.8H583.424z"/>
		<path d="M702.365,112.115c-7.682,0-14.809-1.296-21.383-3.889c-6.578-2.592-12.266-6.214-17.064-10.872
			c-4.803-4.655-8.545-10.103-11.232-16.344c-2.689-6.239-4.031-13.055-4.031-20.448c0-7.391,1.342-14.206,4.031-20.447
			c2.688-6.239,6.43-11.687,11.232-16.345c4.799-4.655,10.463-8.279,16.992-10.872c6.527-2.592,13.68-3.888,21.455-3.888
			c7.68,0,14.783,1.273,21.312,3.816c6.527,2.545,12.191,6.145,16.992,10.8c4.799,4.657,8.518,10.13,11.16,16.416
			c2.639,6.289,3.959,13.129,3.959,20.52c0,7.488-1.32,14.354-3.959,20.593c-2.643,6.241-6.361,11.688-11.16,16.344
			c-4.801,4.657-10.465,8.258-16.992,10.8C717.148,110.843,710.045,112.115,702.365,112.115z M702.223,99.298
			c5.662,0,10.871-0.958,15.623-2.88c4.752-1.919,8.879-4.631,12.385-8.136c3.502-3.504,6.238-7.607,8.207-12.312
			c1.967-4.702,2.953-9.839,2.953-15.408c0-5.566-0.986-10.678-2.953-15.336c-1.969-4.655-4.705-8.759-8.207-12.312
			c-3.506-3.551-7.633-6.287-12.385-8.208c-4.752-1.919-9.961-2.88-15.623-2.88c-5.57,0-10.729,0.961-15.48,2.88
			c-4.752,1.921-8.906,4.657-12.457,8.208c-3.553,3.553-6.312,7.656-8.279,12.312c-1.969,4.658-2.953,9.77-2.953,15.336
			c0,5.569,0.984,10.706,2.953,15.408c1.967,4.705,4.727,8.809,8.279,12.312c3.551,3.505,7.705,6.217,12.457,8.136
			C691.494,98.34,696.652,99.298,702.223,99.298z"/>
		<path d="M777.822,110.962v-100.8h14.398v100.8H777.822z"/>
		<path d="M822.461,110.962v-100.8h42.48c10.75,0,20.232,2.112,28.439,6.336c8.209,4.226,14.592,10.129,19.152,17.712
			c4.559,7.585,6.84,16.369,6.84,26.352c0,9.986-2.281,18.77-6.84,26.353c-4.561,7.585-10.943,13.488-19.152,17.712
			c-8.207,4.226-17.689,6.336-28.439,6.336H822.461z M836.861,98.434h27.217c8.352,0,15.574-1.584,21.672-4.752
			c6.094-3.168,10.822-7.607,14.184-13.319c3.359-5.711,5.039-12.312,5.039-19.801c0-7.582-1.68-14.206-5.039-19.872
			c-3.361-5.663-8.09-10.079-14.184-13.247c-6.098-3.169-13.32-4.753-21.672-4.753h-27.217V98.434z"/>
	</g>
</g>
<g>
	<g>
		<path d="M523.762,169.104h20.736v2.208h-23.184v-33.6h22.463v2.208h-20.016V169.104z M523.475,153.168h18.191v2.159h-18.191
			V153.168z"/>
		<path d="M553.426,171.312v-33.6h2.064l23.951,30.575h-1.104v-30.575h2.447v33.6h-2.016l-24-30.576h1.104v30.576H553.426z"/>
		<path d="M598.93,171.312V139.92h-12.097v-2.208h26.64v2.208h-12.096v31.392H598.93z"/>
		<path d="M621.969,169.104h20.736v2.208h-23.185v-33.6h22.464v2.208h-20.016V169.104z M621.681,153.168h18.192v2.159h-18.192
			V153.168z"/>
		<path d="M651.633,171.312v-33.6h12.047c2.816,0,5.232,0.448,7.248,1.344c2.016,0.896,3.568,2.184,4.656,3.864
			c1.088,1.68,1.633,3.72,1.633,6.119c0,2.337-0.545,4.345-1.633,6.024s-2.641,2.976-4.656,3.888s-4.432,1.368-7.248,1.368h-10.703
			l1.104-1.151v12.144H651.633z M654.08,159.312l-1.104-1.152h10.703c3.615,0,6.359-0.799,8.232-2.399
			c1.871-1.6,2.809-3.84,2.809-6.721c0-2.911-0.938-5.159-2.809-6.743c-1.873-1.584-4.617-2.376-8.232-2.376h-10.703l1.104-1.2
			V159.312z M674.959,171.312l-8.734-12.192h2.783l8.736,12.192H674.959z"/>
		<path d="M692.623,171.312V139.92h-12.096v-2.208h26.641v2.208h-12.096v31.392H692.623z"/>
		<path d="M707.6,171.312l15.455-33.6h2.447l15.457,33.6h-2.641l-14.592-32.064h1.057l-14.545,32.064H707.6z M713.264,161.855
			l0.814-2.063h20.113l0.816,2.063H713.264z"/>
		<path d="M747.055,171.312v-33.6h2.447v33.6H747.055z"/>
		<path d="M761.215,171.312v-33.6h2.062l23.953,30.575h-1.105v-30.575h2.449v33.6h-2.016l-24-30.576h1.104v30.576H761.215z"/>
		<path d="M800.287,171.312v-33.6h2.062l15.6,26.928h-1.104l15.553-26.928h2.016l0.049,33.6h-2.4l-0.049-29.904h0.672l-14.736,25.44
			h-1.199l-14.783-25.44h0.719v29.904H800.287z"/>
		<path d="M848.621,169.104h20.736v2.208h-23.184v-33.6h22.465v2.208h-20.018V169.104z M848.334,153.168h18.191v2.159h-18.191
			V153.168z"/>
		<path d="M878.285,171.312v-33.6h2.064l23.951,30.575h-1.104v-30.575h2.447v33.6h-2.016l-24-30.576h1.104v30.576H878.285z"/>
		<path d="M923.789,171.312V139.92h-12.096v-2.208h26.641v2.208h-12.096v31.392H923.789z"/>
	</g>
</g>
<radialGradient id="SVGID_00000142855143640445184810000015627961768056062347_" cx="603.3795" cy="68.355" r="49.1808" gradientTransform="matrix(1.0547 0 0 1.0431 33.2348 -11.1693)" gradientUnits="userSpaceOnUse">
	<stop  offset="0" style="stop-color:#92278F"/>
	<stop  offset="1" style="stop-color:#000000"/>
</radialGradient>
<ellipse fill="url(#SVGID_00000142855143640445184810000015627961768056062347_)" cx="669.619" cy="60.132" rx="52.342" ry="50.831"/>
<radialGradient id="SVGID_00000028294803299019965490000004746794848110231706_" cx="530.235" cy="256.5931" r="49.1808" gradientTransform="matrix(1.0547 0 0 1.0431 33.2348 -11.1693)" gradientUnits="userSpaceOnUse">
	<stop  offset="0" style="stop-color:#92278F"/>
	<stop  offset="1" style="stop-color:#000000"/>
</radialGradient>
<ellipse fill="url(#SVGID_00000028294803299019965490000004746794848110231706_)" cx="592.474" cy="256.483" rx="52.342" ry="50.831"/>
<g>
	<path fill="none" stroke="#FFFFFF" stroke-width="4" stroke-miterlimit="10" d="M600.341,308.741c0,0,14.997-19.102,3.438-35.973"
		/>
	<path fill="#FFFFFF" d="M600.591,275.956c-1.761-1.76-1.761-4.614,0-6.375c1.761-1.76,4.614-1.76,6.375,0
		c1.76,1.761,1.76,4.615,0,6.375C605.205,277.716,602.352,277.716,600.591,275.956z"/>
</g>
<g>
	<path fill="none" stroke="#FFFFFF" stroke-width="4" stroke-miterlimit="10" d="M645.732,248.616c0,0-19.102-14.997-35.973-3.438"
		/>
	<path fill="#FFFFFF" d="M612.946,248.366c-1.761,1.76-4.614,1.76-6.375,0c-1.761-1.761-1.761-4.615,0-6.375
		c1.761-1.76,4.614-1.76,6.375,0C614.706,243.751,614.706,246.605,612.946,248.366z"/>
</g>
<g>
	<path fill="none" stroke="#FFFFFF" stroke-width="4" stroke-miterlimit="10" d="M584.607,204.225c0,0-14.997,19.103-3.438,35.973"
		/>
	<path fill="#FFFFFF" d="M584.357,237.01c1.761,1.76,1.761,4.614,0,6.375c-1.761,1.76-4.614,1.76-6.375,0
		c-1.761-1.761-1.761-4.615,0-6.375C579.742,235.25,582.596,235.25,584.357,237.01z"/>
</g>
<g>
	<path fill="none" stroke="#FFFFFF" stroke-width="4" stroke-miterlimit="10" d="M539.216,264.35c0,0,19.102,14.997,35.973,3.438"/>
	<path fill="#FFFFFF" d="M572.001,264.6c1.76-1.761,4.614-1.761,6.375,0c1.76,1.76,1.76,4.615,0,6.375
		c-1.761,1.761-4.615,1.761-6.375,0C570.24,269.215,570.24,266.36,572.001,264.6z"/>
</g>
<radialGradient id="SVGID_00000129919395869983814600000005450703651421436546_" cx="755.1495" cy="249.862" r="50.0001" gradientUnits="userSpaceOnUse">
	<stop  offset="0" style="stop-color:#000000"/>
	<stop  offset="0.1743" style="stop-color:#020202;stop-opacity:0.6659"/>
	<stop  offset="0.2454" style="stop-color:#090909;stop-opacity:0.5294"/>
	<stop  offset="0.2978" style="stop-color:#151515;stop-opacity:0.429"/>
	<stop  offset="0.3409" style="stop-color:#272727;stop-opacity:0.3462"/>
	<stop  offset="0.3784" style="stop-color:#3E3E3E;stop-opacity:0.2744"/>
	<stop  offset="0.412" style="stop-color:#5A5A5A;stop-opacity:0.21"/>
	<stop  offset="0.4426" style="stop-color:#7B7B7B;stop-opacity:0.1513"/>
	<stop  offset="0.4709" style="stop-color:#A2A2A2;stop-opacity:0.097"/>
	<stop  offset="0.4964" style="stop-color:#CDCDCD;stop-opacity:0.0482"/>
	<stop  offset="0.5203" style="stop-color:#FCFCFC;stop-opacity:0.0024"/>
	<stop  offset="0.5215" style="stop-color:#FFFFFF;stop-opacity:0"/>
	<stop  offset="0.525" style="stop-color:#F6F6F6;stop-opacity:0.0074"/>
	<stop  offset="0.5443" style="stop-color:#C8C8C8;stop-opacity:0.0477"/>
	<stop  offset="0.566" style="stop-color:#9D9D9D;stop-opacity:0.0931"/>
	<stop  offset="0.5894" style="stop-color:#777777;stop-opacity:0.1419"/>
	<stop  offset="0.6148" style="stop-color:#575757;stop-opacity:0.195"/>
	<stop  offset="0.6429" style="stop-color:#3B3B3B;stop-opacity:0.2537"/>
	<stop  offset="0.6746" style="stop-color:#252525;stop-opacity:0.32"/>
	<stop  offset="0.7117" style="stop-color:#141414;stop-opacity:0.3974"/>
	<stop  offset="0.7575" style="stop-color:#090909;stop-opacity:0.4931"/>
	<stop  offset="0.8217" style="stop-color:#020202;stop-opacity:0.6274"/>
	<stop  offset="1" style="stop-color:#000000"/>
</radialGradient>
<circle fill="url(#SVGID_00000129919395869983814600000005450703651421436546_)" cx="755.149" cy="249.862" r="50"/>
<g>
	<ellipse fill="#FFFFFF" cx="1231.818" cy="-274.005" rx="52.342" ry="50.831"/>
	<g>
		<path fill="#FFFFFF" d="M1111.651-25.605l-45.217-100.8h5.473l43.632,97.488h-2.736l43.633-97.488h5.184l-45.216,100.8H1111.651z"
			/>
		<path fill="#FFFFFF" d="M1298.849-25.605v-100.8h4.897v100.8H1298.849z"/>
		<path fill="#FFFFFF" d="M1340.608-25.605v-100.8h38.88c10.751,0,20.11,2.185,28.08,6.552c7.968,4.369,14.185,10.32,18.648,17.856
			c4.465,7.537,6.697,16.199,6.697,25.991c0,9.792-2.232,18.457-6.697,25.992c-4.463,7.538-10.68,13.489-18.648,17.856
			c-7.97,4.369-17.329,6.552-28.08,6.552H1340.608z M1345.505-30.069h33.696c9.886,0,18.504-1.967,25.848-5.904
			c7.344-3.936,13.007-9.359,16.991-16.271c3.984-6.912,5.977-14.832,5.977-23.761c0-8.928-1.993-16.848-5.977-23.76
			c-3.984-6.912-9.647-12.334-16.991-16.271c-7.344-3.936-15.962-5.904-25.848-5.904h-33.696V-30.069z"/>
	</g>
</g>
<g>
	<path fill="#FFFFFF" d="M1044.309,32.106h20.735v2.208h-23.184v-33.6h22.464v2.208h-20.016V32.106z M1044.021,16.17h18.192v2.159
		h-18.192V16.17z"/>
	<path fill="#FFFFFF" d="M1073.972,34.314v-33.6h2.065l23.952,30.575h-1.104V0.714h2.448v33.6h-2.016l-24-30.576h1.104v30.576
		H1073.972z"/>
	<path fill="#FFFFFF" d="M1119.476,34.314V2.922h-12.096V0.714h26.64v2.208h-12.097v31.392H1119.476z"/>
	<path fill="#FFFFFF" d="M1142.515,32.106h20.736v2.208h-23.184v-33.6h22.464v2.208h-20.017V32.106z M1142.228,16.17h18.191v2.159
		h-18.191V16.17z"/>
	<path fill="#FFFFFF" d="M1172.179,34.314v-33.6h12.048c2.816,0,5.232,0.448,7.248,1.344c2.016,0.897,3.568,2.184,4.656,3.864
		c1.088,1.68,1.633,3.72,1.633,6.119c0,2.337-0.545,4.345-1.633,6.024c-1.088,1.68-2.641,2.976-4.656,3.888
		c-2.016,0.912-4.432,1.368-7.248,1.368h-10.704l1.104-1.151v12.144H1172.179z M1174.627,22.314l-1.104-1.152h10.704
		c3.615,0,6.359-0.799,8.232-2.399c1.871-1.6,2.809-3.84,2.809-6.721c0-2.911-0.938-5.159-2.809-6.743
		c-1.873-1.584-4.617-2.376-8.232-2.376h-10.704l1.104-1.2V22.314z M1195.506,34.314l-8.734-12.192h2.783l8.736,12.192H1195.506z"/>
	<path fill="#FFFFFF" d="M1212.691,34.314V2.922h-12.096V0.714h26.64v2.208h-12.096v31.392H1212.691z"/>
	<path fill="#FFFFFF" d="M1225.986,34.314l15.456-33.6h2.447l15.456,33.6h-2.64L1242.114,2.25h1.056l-14.544,32.064H1225.986z
		 M1231.65,24.858l0.816-2.063h20.112l0.816,2.063H1231.65z"/>
	<path fill="#FFFFFF" d="M1265.442,34.314v-33.6h2.447v33.6H1265.442z"/>
	<path fill="#FFFFFF" d="M1279.603,34.314v-33.6h2.064l23.952,30.575h-1.104V0.714h2.448v33.6h-2.016l-24-30.576h1.104v30.576
		H1279.603z"/>
	<path fill="#FFFFFF" d="M1318.674,34.314v-33.6h2.063l15.6,26.928h-1.104l15.552-26.928h2.017l0.048,33.6h-2.4l-0.048-29.904h0.672
		l-14.736,25.44h-1.199l-14.784-25.44h0.72v29.904H1318.674z"/>
	<path fill="#FFFFFF" d="M1367.009,32.106h20.736v2.208h-23.184v-33.6h22.464v2.208h-20.017V32.106z M1366.721,16.17h18.192v2.159
		h-18.192V16.17z"/>
	<path fill="#FFFFFF" d="M1396.673,34.314v-33.6h2.064l23.952,30.575h-1.104V0.714h2.448v33.6h-2.016l-24-30.576h1.104v30.576
		H1396.673z"/>
	<path fill="#FFFFFF" d="M1442.177,34.314V2.922h-12.096V0.714h26.64v2.208h-12.096v31.392H1442.177z"/>
</g>
<radialGradient id="SVGID_00000092456794284255122570000002095591041478238619_" cx="1224.5867" cy="-89.44" r="37.5" gradientTransform="matrix(1.3911 0 0 1.3555 -477.5362 45.2311)" gradientUnits="userSpaceOnUse">
	<stop  offset="0" style="stop-color:#000000"/>
	<stop  offset="1" style="stop-color:#FFFFFF"/>
</radialGradient>
<ellipse fill="url(#SVGID_00000092456794284255122570000002095591041478238619_)" cx="1225.986" cy="-76.005" rx="52.167" ry="50.831"/>
<radialGradient id="SVGID_00000144296683546922860170000013305845604844283288_" cx="1278.1338" cy="-77.3818" r="0" gradientUnits="userSpaceOnUse">
	<stop  offset="0" style="stop-color:#000000"/>
	<stop  offset="1" style="stop-color:#FFFFFF"/>
</radialGradient>
<path fill="url(#SVGID_00000144296683546922860170000013305845604844283288_)" d="M1278.134-77.382"/>
<g>
	<g>
		<path fill="#131313" d="M1111.651,214.544l-45.217-100.8h5.473l43.632,97.488h-2.736l43.633-97.488h5.184l-45.216,100.8H1111.651z
			"/>
		<path fill="#6B6B6B" d="M1306.962,215.236v-100.8h4.897v100.8H1306.962z"/>
		<path fill="#131313" d="M1340.608,214.544v-100.8h38.88c10.751,0,20.11,2.185,28.08,6.552c7.968,4.369,14.185,10.32,18.648,17.856
			c4.465,7.537,6.697,16.199,6.697,25.991c0,9.792-2.232,18.457-6.697,25.992c-4.463,7.538-10.68,13.489-18.648,17.856
			c-7.97,4.369-17.329,6.552-28.08,6.552H1340.608z M1345.505,210.081h33.696c9.886,0,18.504-1.967,25.848-5.904
			c7.344-3.936,13.007-9.359,16.991-16.271c3.984-6.912,5.977-14.832,5.977-23.761c0-8.928-1.993-16.848-5.977-23.76
			c-3.984-6.912-9.647-12.334-16.991-16.271c-7.344-3.936-15.962-5.904-25.848-5.904h-33.696V210.081z"/>
	</g>
</g>
<g>
	<path fill="#131313" d="M1044.309,272.255h20.735v2.208h-23.184v-33.6h22.464v2.208h-20.016V272.255z M1044.021,256.32h18.192
		v2.159h-18.192V256.32z"/>
	<path fill="#131313" d="M1073.972,274.463v-33.6h2.065l23.952,30.575h-1.104v-30.575h2.448v33.6h-2.016l-24-30.576h1.104v30.576
		H1073.972z"/>
	<path fill="#131313" d="M1119.476,274.463v-31.392h-12.096v-2.208h26.64v2.208h-12.097v31.392H1119.476z"/>
	<path fill="#131313" d="M1142.515,272.255h20.736v2.208h-23.184v-33.6h22.464v2.208h-20.017V272.255z M1142.228,256.32h18.191
		v2.159h-18.191V256.32z"/>
	<path fill="#131313" d="M1172.179,274.463v-33.6h12.048c2.816,0,5.232,0.448,7.248,1.344c2.016,0.896,3.568,2.184,4.656,3.864
		c1.088,1.68,1.633,3.72,1.633,6.119c0,2.337-0.545,4.345-1.633,6.024c-1.088,1.68-2.641,2.975-4.656,3.888
		c-2.016,0.912-4.432,1.368-7.248,1.368h-10.704l1.104-1.151v12.144H1172.179z M1174.627,262.463l-1.104-1.152h10.704
		c3.615,0,6.359-0.799,8.232-2.4c1.871-1.6,2.809-3.84,2.809-6.721c0-2.911-0.938-5.159-2.809-6.743
		c-1.873-1.584-4.617-2.376-8.232-2.376h-10.704l1.104-1.2V262.463z M1195.506,274.463l-8.734-12.192h2.783l8.736,12.192H1195.506z"
		/>
	<path fill="#131313" d="M1212.691,274.463v-31.392h-12.096v-2.208h26.64v2.208h-12.096v31.392H1212.691z"/>
	<path fill="#131313" d="M1225.986,274.463l15.456-33.6h2.447l15.456,33.6h-2.64l-14.592-32.064h1.056l-14.544,32.064H1225.986z
		 M1231.65,265.007l0.816-2.063h20.112l0.816,2.063H1231.65z"/>
	<path fill="#131313" d="M1265.442,274.463v-33.6h2.447v33.6H1265.442z"/>
	<path fill="#131313" d="M1279.603,274.463v-33.6h2.064l23.952,30.575h-1.104v-30.575h2.448v33.6h-2.016l-24-30.576h1.104v30.576
		H1279.603z"/>
	<path fill="#131313" d="M1318.674,274.463v-33.6h2.063l15.6,26.928h-1.104l15.552-26.928h2.017l0.048,33.6h-2.4l-0.048-29.904
		h0.672L1336.337,270h-1.199l-14.784-25.44h0.72v29.904H1318.674z"/>
	<path fill="#131313" d="M1367.009,272.255h20.736v2.208h-23.184v-33.6h22.464v2.208h-20.017V272.255z M1366.721,256.32h18.192
		v2.159h-18.192V256.32z"/>
	<path fill="#131313" d="M1396.673,274.463v-33.6h2.064l23.952,30.575h-1.104v-30.575h2.448v33.6h-2.016l-24-30.576h1.104v30.576
		H1396.673z"/>
	<path fill="#131313" d="M1442.177,274.463v-31.392h-12.096v-2.208h26.64v2.208h-12.096v31.392H1442.177z"/>
</g>
<path fill="#131313" d="M1242.715,147.871c14.927,26.258,13.665,55.141-2.816,64.51c-16.484,9.37-41.948-4.321-56.874-30.58
	c-14.925-26.257-13.664-55.14,2.819-64.51C1202.327,107.921,1227.789,121.613,1242.715,147.871z"/>
<path d="M1278.134,162.768"/>
<path fill="none" stroke="#898989" stroke-miterlimit="10" d="M1177.965,171.312c0,0,57.462-56.439,34.905-86.598"/>
<path fill="none" stroke="#898989" stroke-miterlimit="10" d="M1199.367,204.225c0,0,56.439-62.559,86.598-38.002"/>
<path fill="none" stroke="#898989" stroke-miterlimit="10" d="M1186.781,187.811c0,0,80.685-54.21,81.108-74.066"/>
<circle fill="#FFFFFF" stroke="#000000" stroke-width="0.25" stroke-miterlimit="10" cx="1753.314" cy="-14.286" r="20"/>
<circle cx="1753.314" cy="-14.286" r="10"/>
<circle fill="none" stroke="#000000" stroke-width="0.25" stroke-miterlimit="10" cx="1639.981" cy="-17.619" r="50"/>
<circle fill="#FFFFFF" stroke="#000000" stroke-width="0.25" stroke-miterlimit="10" cx="1639.981" cy="-17.619" r="40"/>
<circle fill="none" stroke="#000000" stroke-width="0.25" stroke-miterlimit="10" cx="1639.981" cy="-17.619" r="30"/>
<circle fill="#FFFFFF" stroke="#000000" stroke-width="0.25" stroke-miterlimit="10" cx="1639.981" cy="-17.619" r="20"/>
<circle cx="1639.981" cy="-17.619" r="10"/>
<g>
	<path stroke="#FFFFFF" stroke-width="0.25" stroke-miterlimit="10" d="M1948.789,93.566c6.358,12.156,17.358,19.156,29.358,21.156
		c15,1,29-9,30-24c1-8-2-16-10-20c-6-3-14-3-20,1c-1-6,5-9,10-10c13-2,24,6,29,17c5,13,0,27-9,36c-9,8-20,12-32,11
		c-15-2-28-11-35.843-23.603c-3.54-4.884-5.271-5.481-6.793-5.526c-21.364,0.129-38.364-14.871-46.364-32.871
		c-0.833-2.083-1.507-4.194-2.027-6.32c-0.092-1.151,0.234-2.48,1.241-4.265c23.786-13.415,31.786-46.415,14.786-68.415
		c-10-12-24-19-40-16c-15,3-26,14-30,28c-5,22,13,41,34,41c-11,1-23-2-30-11c-9-12-11-28-3-42c7-12,19-19,32-21
		c19-2,36,9,45.262,24.352c2.248,4.031,3.837,6.4,6.201,11.839c2.107-0.89,4.287-1.628,6.537-2.191
		c23.625-6.125,48.016,6.125,57.652,27.039c1.314,2.992,2.328,6.161-2.502,10.185c-20.15,6.776-35.15,28.776-30.773,50.994
		C1947.076,88.588,1947.853,91.114,1948.789,93.566z"/>
	<path fill="#FFFFFF" stroke="#000000" stroke-width="0.25" stroke-miterlimit="10" d="M1973.209,35.127
		c-20.062,9.595-34.062,29.595-28.062,52.595c6,22,30,36,51,25c15-8,19-28,10-42c14,7,12,27,4,39c-12,16-33,19-50,10
		c-12-7-19-19-25.269-31.22c-1.843-0.825-3.537-1.06-5.231-1.53c-10-1.25-19.5-6.25-26.5-14.25
		c-2.333-2.666-4.223-5.583-5.685-8.662c-1.463-3.079-2.5-6.319-3.129-9.634c-0.186-1.704-1.186-4.704-0.186-5.704c22-22,23-60-5-76
		c-17-9-39-6-52,8c11-17,34-19,51-12c13,7,22,20,25.95,33.97c1.176,3.515,1.976,4.579,2.81,6.287
		c18.254-7.807,40.791-1.249,51.845,16.117C1970.673,28.237,1972.186,31.622,1973.209,35.127z"/>
	<path d="M1960.356,30.141c0.982,1.382,1.814,2.829,2.5,4.323c-0.626,2.301-1.254,4.574-6.727,10.407
		c-16.982,16.851-17.982,46.851,0.018,63.851c14,12,34,12,49,2c-9,10-22,14-35,11c-18-5-31-20-33.373-37.695
		c-1.393-5.59-2.712-6.56-4.062-6.939c-13.842-1.227-26.065-11.366-28.565-26.366c-0.333-2.5-0.361-4.944-0.115-7.306
		c0.245-2.361,0.764-4.639,1.522-6.806c2.593-3.889,2.593-9.889,7.186-11.444c1.593-1.611,3.361-3.056,5.272-4.306
		c1.912-1.25,3.968-2.305,6.135-3.139c11-3,22-1,30.865,6.208C1957.046,25.744,1958.854,27.833,1960.356,30.141z"/>
	<path fill="#FFFFFF" stroke="#000000" stroke-width="0.25" stroke-miterlimit="10" d="M1948.699,31.458
		c2.362,2.316,4.134,4.991,5.29,7.825c0.441,1.569,0.521,3.335,0.199,5.421c-16.041,18.019-17.041,45.019-2.041,64.019
		c-10-8-13-20-14.291-32.225c-0.491-9.055-2.876-9.256-5.265-9.627c-9.556-1.481-17.777-9.481-18.444-20.148
		c0-14,15-23,27.54-19.164C1944.219,28.368,1946.616,29.677,1948.699,31.458z"/>
	<path d="M1940.35,37.698c6.798,5.024,6.798,14.024-0.202,18.024c-4,3-9,1-12-2c-5-3-3-15,4.589-16.301
		C1935.137,36.56,1937.866,36.58,1940.35,37.698z"/>
</g>
<circle cx="1608.149" cy="21.056" r="2.5"/>
<circle cx="1603.149" cy="-33.277" r="2.5"/>
<circle cx="1669.981" cy="-15.944" r="2.5"/>
<circle cx="1653.981" cy="-31.786" r="2.5"/>
<g>
	<g>
		
			<radialGradient id="SVGID_00000029730548963632129850000004269609794449964988_" cx="137.1725" cy="127.9945" r="49.1808" gradientTransform="matrix(1.0547 0 0 1.0431 33.2348 -11.1693)" gradientUnits="userSpaceOnUse">
			<stop  offset="0" style="stop-color:#4A188F"/>
			<stop  offset="1" style="stop-color:#000000"/>
		</radialGradient>
		
			<ellipse fill="url(#SVGID_00000029730548963632129850000004269609794449964988_)" cx="177.911" cy="122.342" rx="52.342" ry="50.831"/>
		<g>
			<path d="M69.408,172.742l-45.217-100.8h5.473l43.632,97.488h-2.736l43.633-97.488h5.184l-45.216,100.8H69.408z"/>
			<path d="M256.605,172.742v-100.8h4.897v100.8H256.605z"/>
			<path d="M298.365,172.742v-100.8h38.88c10.751,0,20.11,2.185,28.08,6.552c7.968,4.369,14.185,10.32,18.647,17.856
				c4.465,7.537,6.697,16.199,6.697,25.991s-2.232,18.457-6.697,25.992c-4.463,7.538-10.68,13.489-18.647,17.856
				c-7.97,4.369-17.329,6.552-28.08,6.552H298.365z M303.261,168.278h33.696c9.886,0,18.504-1.967,25.848-5.904
				c7.344-3.936,13.007-9.359,16.991-16.271c3.983-6.912,5.977-14.832,5.977-23.761c0-8.928-1.993-16.848-5.977-23.76
				c-3.984-6.912-9.647-12.334-16.991-16.271c-7.344-3.936-15.962-5.904-25.848-5.904h-33.696V168.278z"/>
		</g>
	</g>
	
		<radialGradient id="SVGID_00000160170762349753104200000012497479996994746558_" cx="176.4395" cy="120.223" r="36.3318" gradientUnits="userSpaceOnUse">
		<stop  offset="0" style="stop-color:#000000"/>
		<stop  offset="0.2266" style="stop-color:#030303"/>
		<stop  offset="0.3628" style="stop-color:#0B0B0B"/>
		<stop  offset="0.4751" style="stop-color:#191919"/>
		<stop  offset="0.5745" style="stop-color:#2E2E2E"/>
		<stop  offset="0.6653" style="stop-color:#484848"/>
		<stop  offset="0.7499" style="stop-color:#686868"/>
		<stop  offset="0.8297" style="stop-color:#8F8F8F"/>
		<stop  offset="0.9055" style="stop-color:#BBBBBB"/>
		<stop  offset="0.9759" style="stop-color:#ECECEC"/>
		<stop  offset="1" style="stop-color:#FFFFFF"/>
	</radialGradient>
	<path fill="url(#SVGID_00000160170762349753104200000012497479996994746558_)" d="M197.751,93.8
		c-12.82-7.714-29.82-3.714-39.82,7.286c-11,13-10,31,3,40c9,7,20,7,29,1c12-9,9-25-2-33c11,9,9,25-3,32c-11,5-23,0-28-10
		c-3-7-4-14-1-21c5-11,17-18,30-16c19,3,31,24,24,42c7-18-5-39-24-42c-16-2-32,10-31,26c1,11,10,23,22,21c-7-1-12-5-16-11
		c-7-13,1-29,16-32c13-3,25,5,30,17c7,17-5,36-21,41c-21,6-42-10-45-31c2,19,19,33,38,32c13-1,23-9,28-21c4-9,2-19-3-28
		c-8-11-21-14-33-8c-10,5-13,17-10,27c-3-9,2-21,11-25c13-6,28,2,33,15c4,11-1,22-9,30c-17,15-43,5-50-15c-8-22,7-47,30-49
		c-19,3-34,21-32,41c2,13,10,24,23,28c8,3,17,2,24-2c11-6,17-20,13-32s-17-21-30-16c8-2,16,2,22,8s9,15,6,23c-5,12-17,19-29,18
		c-13-1-23-11-26-24c-3-16,5-31,20-38c7-3,14-3,21-3c-18-1-37,9-40,28c-2,14,4,26,15,33s24,3,33-6c9-10,9-26-3-33c-7-4-16-4-22,1
		c13-8,30,4,28,18s-16,22-29,19c-7-2-12-6-16-11c-7-12-5-26,5-36c9-9,22-12,34.39-7.063C196.364,93.134,197.751,93.8,197.751,93.8z"
		/>
</g>
<g>
	<path d="M170.615,48.752V17.36H158.52v-2.208h26.64v2.208h-12.096v31.392H170.615z"/>
	<path d="M193.654,48.752h-2.447v-33.6h2.447V48.752z M216.406,32.769h-23.04v-2.16h23.04V32.769z M216.118,15.152h2.448v33.6
		h-2.448V15.152z"/>
	<path d="M232.727,46.544h20.736v2.208h-23.184v-33.6h22.464v2.208h-20.017V46.544z M232.439,30.608h18.192v2.16h-18.192V30.608z"/>
</g>
<rect x="-59.797" y="-82.334" fill="none" width="2.222" height="2.778"/>
</svg>
