<svg id="Layer_1" data-name="Layer 1" xmlns="http://www.w3.org/2000/svg" xmlns:xlink="http://www.w3.org/1999/xlink" viewBox="0 0 423.65 170.67"><defs><style>.cls-1{fill:url(#radial-gradient);}.cls-2{fill:#111;}</style><radialGradient id="radial-gradient" cx="142.1" cy="34.65" r="49.18" gradientTransform="translate(33.32 20.13) scale(1.05 1.04)" gradientUnits="userSpaceOnUse"><stop offset="0"/><stop offset="0.02" stop-color="#140824"/><stop offset="0.05" stop-color="#250f44"/><stop offset="0.08" stop-color="#34155e"/><stop offset="0.11" stop-color="#3f1973"/><stop offset="0.14" stop-color="#471d81"/><stop offset="0.18" stop-color="#4c1e89"/><stop offset="0.25" stop-color="#4d1f8c"/><stop offset="0.33" stop-color="#51248f"/><stop offset="0.44" stop-color="#5d3496"/><stop offset="0.55" stop-color="#714da2"/><stop offset="0.68" stop-color="#8c70b2"/><stop offset="0.81" stop-color="#af9dc8"/><stop offset="0.94" stop-color="#d9d4e1"/><stop offset="1" stop-color="#eee"/></radialGradient></defs><ellipse class="cls-1" cx="183.19" cy="56.27" rx="52.34" ry="50.83"/><path class="cls-2" d="M74.69,106.67,29.47,5.87H35l43.63,97.49H75.84L119.48,5.87h5.18L79.44,106.67Z"/><path class="cls-2" d="M261.89,106.67V5.87h4.9v100.8Z"/><path class="cls-2" d="M303.65,106.67V5.87h38.88q16.13,0,28.08,6.56a48.11,48.11,0,0,1,18.65,17.85,50.07,50.07,0,0,1,6.69,26,50.08,50.08,0,0,1-6.69,26,48.11,48.11,0,0,1-18.65,17.85q-12,6.55-28.08,6.55Zm4.9-4.46h33.69q14.83,0,25.85-5.9a42.07,42.07,0,0,0,17-16.28,46.75,46.75,0,0,0,6-23.76,46.8,46.8,0,0,0-6-23.76,42.11,42.11,0,0,0-17-16.27q-11-5.89-25.85-5.9H308.55Z"/><path class="cls-2" d="M7.35,164.39H28.08v2.2H4.9V133H27.36v2.21h-20Zm-.29-15.94H25.25v2.16H7.06Z"/><path class="cls-2" d="M37,166.59V133h2.07l24,30.58H61.92V133h2.45v33.6h-2L38.36,136h1.1v30.57Z"/><path class="cls-2" d="M82.52,166.59V135.2H70.42V133H97.06v2.21H85v31.39Z"/><path class="cls-2" d="M105.55,164.39h20.74v2.2H103.11V133h22.46v2.21h-20Zm-.28-15.94h18.19v2.16H105.27Z"/><path class="cls-2" d="M135.22,166.59V133h12.05a17.65,17.65,0,0,1,7.24,1.35,10.38,10.38,0,0,1,4.66,3.86,11,11,0,0,1,1.63,6.12,10.8,10.8,0,0,1-1.63,6,10.56,10.56,0,0,1-4.66,3.89,17.32,17.32,0,0,1-7.24,1.37H136.56l1.11-1.15v12.14Zm2.45-12-1.11-1.15h10.71c3.61,0,6.36-.8,8.23-2.4a9.46,9.46,0,0,0,0-13.46c-1.87-1.59-4.62-2.38-8.23-2.38H136.56l1.11-1.2Zm20.88,12-8.74-12.19h2.78l8.74,12.19Z"/><path class="cls-2" d="M175.73,166.59V135.2h-12.1V133h26.64v2.21H178.18v31.39Z"/><path class="cls-2" d="M189,166.59,204.48,133h2.45l15.46,33.6h-2.64l-14.6-32.06h1.06l-14.54,32.06Zm5.66-9.45.82-2.07h20.11l.81,2.07Z"/><path class="cls-2" d="M228.48,166.59V133h2.45v33.6Z"/><path class="cls-2" d="M242.64,166.59V133h2.07l24,30.58h-1.11V133H270v33.6h-2L244,136h1.1v30.57Z"/><path class="cls-2" d="M281.71,166.59V133h2.07l15.6,26.93h-1.11L313.83,133h2l.05,33.6h-2.4l-.05-29.9h.67l-14.73,25.44h-1.2l-14.79-25.44h.72v29.9Z"/><path class="cls-2" d="M330.05,164.39h20.74v2.2H327.6V133h22.47v2.21h-20Zm-.29-15.94H348v2.16H329.76Z"/><path class="cls-2" d="M359.71,166.59V133h2.07l24,30.58h-1.11V133h2.45v33.6h-2l-24-30.57h1.1v30.57Z"/><path class="cls-2" d="M405.22,166.59V135.2h-12.1V133h26.64v2.21H407.67v31.39Z"/></svg>