<?xml version="1.0" encoding="utf-8"?>
<!-- Generator: Adobe Illustrator 26.0.3, SVG Export Plug-In . SVG Version: 6.00 Build 0)  -->
<svg version="1.1" id="Layer_1" xmlns="http://www.w3.org/2000/svg" xmlns:xlink="http://www.w3.org/1999/xlink" x="0px" y="0px"
	 viewBox="0 0 423.6 170.7" style="enable-background:new 0 0 423.6 170.7;" xml:space="preserve">
<style type="text/css">
	.st0{fill:url(#SVGID_1_);}
	.st1{fill:#EEEEEE;}
</style>
<g>
	
		<radialGradient id="SVGID_1_" cx="127.2972" cy="136.0415" r="49.1806" gradientTransform="matrix(1.0547 0 0 -1.0431 48.9336 198.1789)" gradientUnits="userSpaceOnUse">
		<stop  offset="0" style="stop-color:#4A188F"/>
		<stop  offset="0.783" style="stop-color:#CABFD9"/>
		<stop  offset="1" style="stop-color:#EEEEEE"/>
	</radialGradient>
	<ellipse class="st0" cx="183.2" cy="56.3" rx="52.3" ry="50.8"/>
	<g>
		<path class="st1" d="M74.7,106.7L29.5,5.9h5.5l43.6,97.5h-2.7l43.6-97.5h5.2L79.4,106.7H74.7z"/>
		<path class="st1" d="M261.9,106.7V5.9h4.9v100.8H261.9z"/>
		<path class="st1" d="M303.6,106.7V5.9h38.9c10.8,0,20.1,2.2,28.1,6.6c8,4.4,14.2,10.3,18.6,17.9c4.5,7.5,6.7,16.2,6.7,26
			s-2.2,18.5-6.7,26c-4.5,7.5-10.7,13.5-18.6,17.9c-8,4.4-17.3,6.6-28.1,6.6C342.5,106.7,303.6,106.7,303.6,106.7z M308.5,102.2
			h33.7c9.9,0,18.5-2,25.8-5.9c7.3-3.9,13-9.4,17-16.3c4-6.9,6-14.8,6-23.8s-2-16.8-6-23.8c-4-6.9-9.6-12.3-17-16.3
			c-7.3-3.9-16-5.9-25.8-5.9h-33.7L308.5,102.2L308.5,102.2z"/>
	</g>
</g>
<g>
	<path class="st1" d="M7.3,164.4h20.7v2.2H4.9V133h22.5v2.2h-20V164.4z M7.1,148.4h18.2v2.2H7.1V148.4z"/>
	<path class="st1" d="M37,166.6V133h2.1l24,30.6h-1.1V133h2.4v33.6h-2l-24-30.6h1.1v30.6L37,166.6L37,166.6z"/>
	<path class="st1" d="M82.5,166.6v-31.4H70.4V133h26.6v2.2H85v31.4H82.5z"/>
	<path class="st1" d="M105.6,164.4h20.7v2.2h-23.2V133h22.5v2.2h-20L105.6,164.4L105.6,164.4z M105.3,148.4h18.2v2.2h-18.2V148.4z"
		/>
	<path class="st1" d="M135.2,166.6V133h12c2.8,0,5.2,0.4,7.2,1.3c2,0.9,3.6,2.2,4.7,3.9c1.1,1.7,1.6,3.7,1.6,6.1
		c0,2.3-0.5,4.3-1.6,6s-2.6,3-4.7,3.9s-4.4,1.4-7.2,1.4h-10.7l1.1-1.1v12.1L135.2,166.6L135.2,166.6z M137.7,154.6l-1.1-1.2h10.7
		c3.6,0,6.4-0.8,8.2-2.4c1.9-1.6,2.8-3.8,2.8-6.7c0-2.9-0.9-5.2-2.8-6.7c-1.9-1.6-4.6-2.4-8.2-2.4h-10.7l1.1-1.2V154.6z
		 M158.5,166.6l-8.7-12.2h2.8l8.7,12.2H158.5z"/>
	<path class="st1" d="M175.7,166.6v-31.4h-12.1V133h26.6v2.2h-12.1v31.4H175.7z"/>
	<path class="st1" d="M189,166.6l15.5-33.6h2.4l15.5,33.6h-2.6l-14.6-32.1h1.1l-14.5,32.1L189,166.6L189,166.6z M194.7,157.1
		l0.8-2.1h20.1l0.8,2.1H194.7z"/>
	<path class="st1" d="M228.5,166.6V133h2.4v33.6L228.5,166.6L228.5,166.6z"/>
	<path class="st1" d="M242.6,166.6V133h2.1l24,30.6h-1.1V133h2.4v33.6h-2L244,136h1.1v30.6L242.6,166.6L242.6,166.6z"/>
	<path class="st1" d="M281.7,166.6V133h2.1l15.6,26.9h-1.1l15.6-26.9h2l0,33.6h-2.4l0-29.9h0.7l-14.7,25.4h-1.2l-14.8-25.4h0.7v29.9
		L281.7,166.6L281.7,166.6z"/>
	<path class="st1" d="M330,164.4h20.7v2.2h-23.2V133h22.5v2.2h-20L330,164.4L330,164.4z M329.8,148.4H348v2.2h-18.2V148.4z"/>
	<path class="st1" d="M359.7,166.6V133h2.1l24,30.6h-1.1V133h2.4v33.6h-2l-24-30.6h1.1v30.6L359.7,166.6L359.7,166.6z"/>
	<path class="st1" d="M405.2,166.6v-31.4h-12.1V133h26.6v2.2h-12.1v31.4H405.2z"/>
</g>
</svg>
