<?xml version="1.0" encoding="utf-8"?>
<!-- Generator: Adobe Illustrator 16.0.3, SVG Export Plug-In . SVG Version: 6.00 Build 0)  -->
<!DOCTYPE svg PUBLIC "-//W3C//DTD SVG 1.1//EN" "http://www.w3.org/Graphics/SVG/1.1/DTD/svg11.dtd">
<svg version="1.1" id="Layer_1" xmlns="http://www.w3.org/2000/svg" xmlns:xlink="http://www.w3.org/1999/xlink" x="0px" y="0px"
	 width="423.649px" height="170.667px" viewBox="0 0 423.649 170.667" enable-background="new 0 0 423.649 170.667"
	 xml:space="preserve">
<circle stroke="#FFFFFF" stroke-width="0.25" stroke-miterlimit="10" cx="1753.314" cy="-294.841" r="50"/>
<circle fill="#FFFFFF" stroke="#000000" stroke-width="0.25" stroke-miterlimit="10" cx="1753.314" cy="-294.841" r="40"/>
<circle cx="1753.314" cy="-294.841" r="30"/>
<rect x="1003.209" y="-435.667" stroke="#FFFFFF" stroke-miterlimit="10" width="499.85" height="500"/>
<text transform="matrix(1 0 0 1 -796.4277 80.9072)" font-family="'MontserratRoman-ExtraLight'" font-size="144">VOID</text>
<text transform="matrix(1 0 0 1 -815.6704 141.2559)" font-family="'MontserratRoman-Light'" font-size="48">ENTERTAINMENT</text>
<radialGradient id="SVGID_1_" cx="-278.8809" cy="-117.7402" r="49.1805" gradientTransform="matrix(1.0547 0 0 1.0431 33.2347 0.9223)" gradientUnits="userSpaceOnUse">
	<stop  offset="0" style="stop-color:#92278F"/>
	<stop  offset="1" style="stop-color:#000000"/>
</radialGradient>
<ellipse fill="url(#SVGID_1_)" cx="-260.9" cy="-121.892" rx="52.342" ry="50.83"/>
<g>
	
		<radialGradient id="SVGID_2_" cx="-688.4854" cy="269.998" r="49.1812" gradientTransform="matrix(1.0547 0 0 1.0431 33.2347 0.9223)" gradientUnits="userSpaceOnUse">
		<stop  offset="0" style="stop-color:#92278F"/>
		<stop  offset="1" style="stop-color:#000000"/>
	</radialGradient>
	<ellipse fill="url(#SVGID_2_)" cx="-692.91" cy="282.558" rx="52.342" ry="50.831"/>
	<g>
		<path d="M-801.414,332.958l-45.216-100.8h5.472l43.632,97.488h-2.736l43.632-97.488h5.184l-45.216,100.8H-801.414z"/>
		<path d="M-614.215,332.958v-100.8h4.896v100.8H-614.215z"/>
		<path d="M-572.456,332.958v-100.8h38.88c10.75,0,20.111,2.185,28.08,6.552c7.968,4.369,14.185,10.32,18.648,17.856
			c4.463,7.537,6.696,16.199,6.696,25.991s-2.233,18.457-6.696,25.992c-4.464,7.538-10.681,13.489-18.648,17.856
			c-7.969,4.369-17.33,6.552-28.08,6.552H-572.456z M-567.561,328.494h33.697c9.886,0,18.504-1.967,25.848-5.904
			c7.344-3.936,13.006-9.359,16.992-16.271c3.982-6.912,5.976-14.832,5.976-23.761c0-8.928-1.993-16.848-5.976-23.76
			c-3.986-6.912-9.648-12.334-16.992-16.271c-7.344-3.936-15.962-5.904-25.848-5.904h-33.697V328.494z"/>
	</g>
</g>
<g>
	<path d="M-868.756,390.669h20.736v2.208h-23.184v-33.6h22.464v2.208h-20.016V390.669z M-869.044,374.733h18.192v2.159h-18.192
		V374.733z"/>
	<path d="M-839.092,392.877v-33.6h2.064l23.952,30.575h-1.104v-30.575h2.448v33.6h-2.016l-24-30.576h1.104v30.576H-839.092z"/>
	<path d="M-793.589,392.877v-31.392h-12.096v-2.208h26.64v2.208h-12.096v31.392H-793.589z"/>
	<path d="M-770.549,390.669h20.736v2.208h-23.184v-33.6h22.464v2.208h-20.016V390.669z M-770.837,374.733h18.192v2.159h-18.192
		V374.733z"/>
	<path d="M-740.886,392.877v-33.6h12.048c2.816,0,5.232,0.448,7.248,1.344c2.016,0.896,3.568,2.184,4.656,3.864
		c1.088,1.68,1.633,3.72,1.633,6.119c0,2.337-0.545,4.345-1.633,6.024s-2.641,2.976-4.656,3.888s-4.432,1.368-7.248,1.368h-10.704
		l1.104-1.151v12.144H-740.886z M-738.438,380.877l-1.104-1.152h10.704c3.615,0,6.359-0.799,8.232-2.399
		c1.871-1.6,2.809-3.84,2.809-6.721c0-2.911-0.938-5.159-2.809-6.743c-1.873-1.584-4.617-2.376-8.232-2.376h-10.704l1.104-1.2
		V380.877z M-717.559,392.877l-8.734-12.192h2.783l8.736,12.192H-717.559z"/>
	<path d="M-700.374,392.877v-31.392h-12.096v-2.208h26.64v2.208h-12.096v31.392H-700.374z"/>
	<path d="M-687.078,392.877l15.456-33.6h2.447l15.456,33.6h-2.64l-14.592-32.064h1.056l-14.544,32.064H-687.078z M-681.414,383.421
		l0.815-2.063h20.112l0.816,2.063H-681.414z"/>
	<path d="M-647.622,392.877v-33.6h2.447v33.6H-647.622z"/>
	<path d="M-633.462,392.877v-33.6h2.063l23.952,30.575h-1.104v-30.575h2.448v33.6h-2.016l-24-30.576h1.104v30.576H-633.462z"/>
	<path d="M-594.391,392.877v-33.6h2.063l15.6,26.928h-1.104l15.552-26.928h2.017l0.048,33.6h-2.4l-0.048-29.904h0.672l-14.736,25.44
		h-1.199l-14.784-25.44h0.72v29.904H-594.391z"/>
	<path d="M-546.056,390.669h20.736v2.208h-23.184v-33.6h22.464v2.208h-20.017V390.669z M-546.344,374.733h18.192v2.159h-18.192
		V374.733z"/>
	<path d="M-516.392,392.877v-33.6h2.063l23.952,30.575h-1.104v-30.575h2.448v33.6h-2.016l-24-30.576h1.104v30.576H-516.392z"/>
	<path d="M-470.888,392.877v-31.392h-12.096v-2.208h26.64v2.208h-12.096v31.392H-470.888z"/>
</g>
<g>
	
		<radialGradient id="SVGID_3_" cx="142.1816" cy="53.064" r="49.1805" gradientTransform="matrix(1.0547 0 0 1.0431 33.2347 0.9223)" gradientUnits="userSpaceOnUse">
		<stop  offset="0" style="stop-color:#000000"/>
		<stop  offset="0.0228" style="stop-color:#140824"/>
		<stop  offset="0.0479" style="stop-color:#250F44"/>
		<stop  offset="0.0753" style="stop-color:#34155E"/>
		<stop  offset="0.1052" style="stop-color:#3F1973"/>
		<stop  offset="0.139" style="stop-color:#471D81"/>
		<stop  offset="0.1799" style="stop-color:#4C1E89"/>
		<stop  offset="0.2473" style="stop-color:#4D1F8C"/>
		<stop  offset="0.3324" style="stop-color:#51248F"/>
		<stop  offset="0.4379" style="stop-color:#5D3496"/>
		<stop  offset="0.554" style="stop-color:#714DA2"/>
		<stop  offset="0.6779" style="stop-color:#8C70B2"/>
		<stop  offset="0.808" style="stop-color:#AF9DC8"/>
		<stop  offset="0.9412" style="stop-color:#D9D4E1"/>
		<stop  offset="1" style="stop-color:#EEEEEE"/>
	</radialGradient>
	<ellipse fill="url(#SVGID_3_)" cx="183.194" cy="56.274" rx="52.342" ry="50.83"/>
	<g>
		<path fill="#EEEEEE" d="M74.691,106.675L29.475,5.875h5.473l43.632,97.488h-2.736l43.633-97.488h5.184l-45.216,100.8H74.691z"/>
		<path fill="#EEEEEE" d="M261.889,106.675V5.875h4.897v100.8H261.889z"/>
		<path fill="#EEEEEE" d="M303.648,106.675V5.875h38.88c10.751,0,20.11,2.185,28.08,6.552c7.968,4.369,14.185,10.32,18.647,17.856
			c4.465,7.537,6.697,16.199,6.697,25.991c0,9.792-2.232,18.458-6.697,25.993c-4.463,7.537-10.68,13.488-18.647,17.855
			c-7.97,4.369-17.329,6.553-28.08,6.553H303.648z M308.545,102.21h33.696c9.886,0,18.504-1.967,25.848-5.904
			c7.344-3.936,13.007-9.359,16.991-16.271c3.983-6.912,5.977-14.832,5.977-23.76c0-8.928-1.993-16.848-5.977-23.76
			c-3.984-6.912-9.647-12.334-16.991-16.271c-7.344-3.936-15.962-5.904-25.848-5.904h-33.696V102.21z"/>
	</g>
</g>
<g>
	<path fill="#EEEEEE" d="M7.349,164.386h20.735v2.207H4.9v-33.6h22.464v2.209H7.349V164.386z M7.061,148.45h18.192v2.158H7.061
		V148.45z"/>
	<path fill="#EEEEEE" d="M37.012,166.593v-33.6h2.064l23.952,30.576h-1.104v-30.576h2.448v33.6h-2.016l-24-30.576h1.104v30.576
		H37.012z"/>
	<path fill="#EEEEEE" d="M82.516,166.593v-31.391H70.42v-2.209h26.64v2.209H84.963v31.391H82.516z"/>
	<path fill="#EEEEEE" d="M105.555,164.386h20.736v2.207h-23.184v-33.6h22.464v2.209h-20.017V164.386z M105.268,148.45h18.191v2.158
		h-18.191V148.45z"/>
	<path fill="#EEEEEE" d="M135.219,166.593v-33.6h12.048c2.816,0,5.232,0.449,7.248,1.344c2.016,0.896,3.568,2.184,4.656,3.865
		c1.088,1.68,1.633,3.719,1.633,6.119c0,2.336-0.545,4.344-1.633,6.023s-2.641,2.977-4.656,3.889s-4.432,1.367-7.248,1.367h-10.704
		l1.104-1.15v12.143H135.219z M137.667,154.593l-1.104-1.152h10.704c3.615,0,6.359-0.799,8.232-2.398
		c1.871-1.6,2.809-3.84,2.809-6.721c0-2.912-0.938-5.16-2.809-6.744c-1.873-1.584-4.617-2.375-8.232-2.375h-10.704l1.104-1.201
		V154.593z M158.546,166.593l-8.734-12.191h2.783l8.736,12.191H158.546z"/>
	<path fill="#EEEEEE" d="M175.73,166.593v-31.391h-12.096v-2.209h26.64v2.209h-12.096v31.391H175.73z"/>
	<path fill="#EEEEEE" d="M189.026,166.593l15.456-33.6h2.447l15.456,33.6h-2.64l-14.592-32.064h1.056l-14.544,32.064H189.026z
		 M194.69,157.138l0.815-2.064h20.112l0.816,2.064H194.69z"/>
	<path fill="#EEEEEE" d="M228.482,166.593v-33.6h2.447v33.6H228.482z"/>
	<path fill="#EEEEEE" d="M242.643,166.593v-33.6h2.063l23.952,30.576h-1.104v-30.576h2.448v33.6h-2.016l-24-30.576h1.104v30.576
		H242.643z"/>
	<path fill="#EEEEEE" d="M281.714,166.593v-33.6h2.063l15.6,26.928h-1.104l15.552-26.928h2.017l0.048,33.6h-2.4l-0.048-29.904h0.672
		l-14.736,25.441h-1.199l-14.784-25.441h0.72v29.904H281.714z"/>
	<path fill="#EEEEEE" d="M330.049,164.386h20.736v2.207h-23.184v-33.6h22.464v2.209h-20.017V164.386z M329.761,148.45h18.192v2.158
		h-18.192V148.45z"/>
	<path fill="#EEEEEE" d="M359.713,166.593v-33.6h2.063l23.952,30.576h-1.104v-30.576h2.448v33.6h-2.016l-24-30.576h1.104v30.576
		H359.713z"/>
	<path fill="#EEEEEE" d="M405.217,166.593v-31.391h-12.096v-2.209h26.64v2.209h-12.096v31.391H405.217z"/>
</g>
<path fill="#EA1C1C" stroke="#FFFFFF" stroke-width="10" stroke-miterlimit="10" d="M-642.409-140.691
	c0-13.329,5.08-26.656,15.245-36.818c3.297-3.299,6.931-6.053,10.787-8.279c-8.027-4.637-17.026-6.966-26.032-6.966
	s-18.004,2.329-26.032,6.966c3.856,2.227,7.49,4.98,10.787,8.279C-647.489-167.347-642.409-154.02-642.409-140.691z"/>
<path fill="#6600FF" stroke="#FFFFFF" stroke-width="10" stroke-miterlimit="10" d="M-597.311-166.723
	c4.637-8.029,6.965-17.028,6.965-26.032c-9.003,0-18.002,2.329-26.031,6.966c3.855,2.227,7.488,4.98,10.787,8.279
	C-602.292-174.213-599.538-170.579-597.311-166.723z"/>
<path fill="#6600FF" stroke="#FFFFFF" stroke-width="10" stroke-miterlimit="10" d="M-642.409-140.691
	c13.329,0,26.656-5.08,36.818-15.245c3.299-3.297,6.052-6.931,8.279-10.787c-2.227-3.856-4.98-7.49-8.279-10.787
	c-3.299-3.299-6.931-6.053-10.787-8.279c-3.856,2.227-7.49,4.98-10.787,8.279C-637.329-167.347-642.409-154.02-642.409-140.691z"/>
<path fill="#0033CC" stroke="#FFFFFF" stroke-width="10" stroke-miterlimit="10" d="M-597.311-166.723
	c-2.227,3.856-4.98,7.49-8.279,10.787c-10.163,10.165-23.489,15.245-36.818,15.245c13.329,0,26.656,5.08,36.818,15.245
	c3.299,3.297,6.052,6.931,8.279,10.787c4.639-8.029,6.965-17.029,6.965-26.032C-590.346-149.694-592.672-158.693-597.311-166.723z"
	/>
<path fill="#00FFD0" stroke="#FFFFFF" stroke-width="10" stroke-miterlimit="10" d="M-597.311-114.659
	c-2.227,3.855-4.98,7.49-8.279,10.787c-3.296,3.298-6.931,6.052-10.787,8.279c8.029,4.637,17.028,6.965,26.031,6.965
	C-590.346-97.631-592.674-106.63-597.311-114.659z"/>
<path fill="#00FFD0" stroke="#FFFFFF" stroke-width="10" stroke-miterlimit="10" d="M-597.311-114.659
	c-2.227-3.856-4.98-7.49-8.279-10.787c-10.163-10.165-23.489-15.245-36.818-15.245c0,13.329,5.08,26.656,15.245,36.818
	c3.297,3.298,6.931,6.052,10.787,8.279c3.855-2.227,7.49-4.981,10.787-8.279C-602.292-107.169-599.538-110.804-597.311-114.659z"/>
<path fill="#00FF00" stroke="#FFFFFF" stroke-width="10" stroke-miterlimit="10" d="M-616.377-95.593
	c-3.856-2.227-7.49-4.981-10.787-8.279c-10.165-10.163-15.245-23.489-15.245-36.818c0,13.329-5.08,26.656-15.245,36.818
	c-3.297,3.298-6.931,6.052-10.787,8.279c8.027,4.639,17.026,6.965,26.032,6.965S-624.404-90.955-616.377-95.593z"/>
<path fill="#FF7300" stroke="#FFFFFF" stroke-width="10" stroke-miterlimit="10" d="M-668.44-185.789
	c-8.029-4.637-17.028-6.966-26.031-6.966c0,9.005,2.329,18.007,6.967,26.036c2.229-3.856,4.98-7.492,8.277-10.791
	C-675.929-180.808-672.296-183.562-668.44-185.789z"/>
<path fill="#FF7300" stroke="#FFFFFF" stroke-width="10" stroke-miterlimit="10" d="M-642.409-140.691
	c0-13.329-5.08-26.656-15.245-36.818c-3.297-3.299-6.931-6.053-10.787-8.279c-3.856,2.227-7.488,4.98-10.787,8.279
	c-3.297,3.298-6.048,6.935-8.277,10.791c2.229,3.856,4.98,7.488,8.277,10.783C-669.064-145.771-655.738-140.691-642.409-140.691z"/>
<path fill="#99FF00" stroke="#FFFFFF" stroke-width="10" stroke-miterlimit="10" d="M-687.504-114.659
	c-4.639,8.029-6.967,17.028-6.967,26.031c9.003,0,18.002-2.329,26.031-6.965c-3.856-2.227-7.49-4.981-10.787-8.279
	C-682.526-107.171-685.279-110.804-687.504-114.659z"/>
<path fill="#99FF00" stroke="#FFFFFF" stroke-width="10" stroke-miterlimit="10" d="M-642.409-140.691
	c-13.329,0-26.656,5.08-36.818,15.245c-3.299,3.297-6.052,6.931-8.277,10.787c2.225,3.855,4.979,7.488,8.277,10.787
	c3.296,3.298,6.931,6.052,10.787,8.279c3.856-2.227,7.49-4.981,10.787-8.279C-647.489-114.035-642.409-127.362-642.409-140.691z"/>
<path fill="#FFDA00" stroke="#FFFFFF" stroke-width="10" stroke-miterlimit="10" d="M-642.409-140.691
	c-13.329,0-26.656-5.08-36.818-15.245c-3.297-3.295-6.048-6.927-8.277-10.783c-9.276,16.063-9.278,36.005,0,52.06
	c2.225-3.856,4.979-7.49,8.277-10.787C-669.064-135.611-655.738-140.691-642.409-140.691z"/>
<text transform="matrix(1 0 0 1 539.2148 -169.5933)" font-family="'MontserratRoman-Medium'" font-size="144">VOID</text>
<text transform="matrix(1 0 0 1 515.458 -109.2441)" font-family="'MontserratRoman-Light'" font-size="48">ENTERTAINMENT</text>
<radialGradient id="SVGID_4_" cx="603.3789" cy="-212.2012" r="49.1808" gradientTransform="matrix(1.0547 0 0 1.0431 33.2347 0.9223)" gradientUnits="userSpaceOnUse">
	<stop  offset="0" style="stop-color:#92278F"/>
	<stop  offset="1" style="stop-color:#000000"/>
</radialGradient>
<ellipse fill="url(#SVGID_4_)" cx="669.619" cy="-220.424" rx="52.342" ry="50.831"/>
<radialGradient id="SVGID_5_" cx="530.2344" cy="-23.9629" r="49.1805" gradientTransform="matrix(1.0547 0 0 1.0431 33.2347 0.9223)" gradientUnits="userSpaceOnUse">
	<stop  offset="0" style="stop-color:#92278F"/>
	<stop  offset="1" style="stop-color:#000000"/>
</radialGradient>
<ellipse fill="url(#SVGID_5_)" cx="592.474" cy="-24.073" rx="52.342" ry="50.831"/>
<g>
	<path fill="none" stroke="#FFFFFF" stroke-width="4" stroke-miterlimit="10" d="M600.341,28.185c0,0,14.997-19.102,3.438-35.973"/>
	<circle fill="#FFFFFF" cx="603.778" cy="-7.788" r="4.508"/>
</g>
<g>
	<path fill="none" stroke="#FFFFFF" stroke-width="4" stroke-miterlimit="10" d="M645.731-31.94c0,0-19.103-14.997-35.973-3.438"/>
	<circle fill="#FFFFFF" cx="609.759" cy="-35.377" r="4.508"/>
</g>
<g>
	<path fill="none" stroke="#FFFFFF" stroke-width="4" stroke-miterlimit="10" d="M584.606-76.331c0,0-14.997,19.103-3.438,35.973"/>
	<circle fill="#FFFFFF" cx="581.169" cy="-40.358" r="4.508"/>
</g>
<g>
	<path fill="none" stroke="#FFFFFF" stroke-width="4" stroke-miterlimit="10" d="M539.216-16.206c0,0,19.102,14.997,35.973,3.438"/>
	<circle fill="#FFFFFF" cx="575.188" cy="-12.768" r="4.508"/>
</g>
<radialGradient id="SVGID_6_" cx="755.1494" cy="-30.6934" r="50" gradientUnits="userSpaceOnUse">
	<stop  offset="0" style="stop-color:#000000"/>
	<stop  offset="0.1743" style="stop-color:#020202;stop-opacity:0.6659"/>
	<stop  offset="0.2454" style="stop-color:#090909;stop-opacity:0.5294"/>
	<stop  offset="0.2978" style="stop-color:#151515;stop-opacity:0.429"/>
	<stop  offset="0.3409" style="stop-color:#272727;stop-opacity:0.3462"/>
	<stop  offset="0.3784" style="stop-color:#3E3E3E;stop-opacity:0.2744"/>
	<stop  offset="0.412" style="stop-color:#5A5A5A;stop-opacity:0.21"/>
	<stop  offset="0.4426" style="stop-color:#7B7B7B;stop-opacity:0.1513"/>
	<stop  offset="0.4709" style="stop-color:#A2A2A2;stop-opacity:0.097"/>
	<stop  offset="0.4964" style="stop-color:#CDCDCD;stop-opacity:0.0482"/>
	<stop  offset="0.5203" style="stop-color:#FCFCFC;stop-opacity:0.0024"/>
	<stop  offset="0.5215" style="stop-color:#FFFFFF;stop-opacity:0"/>
	<stop  offset="0.525" style="stop-color:#F6F6F6;stop-opacity:0.0074"/>
	<stop  offset="0.5443" style="stop-color:#C8C8C8;stop-opacity:0.0477"/>
	<stop  offset="0.566" style="stop-color:#9D9D9D;stop-opacity:0.0931"/>
	<stop  offset="0.5894" style="stop-color:#777777;stop-opacity:0.1419"/>
	<stop  offset="0.6148" style="stop-color:#575757;stop-opacity:0.195"/>
	<stop  offset="0.6429" style="stop-color:#3B3B3B;stop-opacity:0.2537"/>
	<stop  offset="0.6746" style="stop-color:#252525;stop-opacity:0.32"/>
	<stop  offset="0.7117" style="stop-color:#141414;stop-opacity:0.3974"/>
	<stop  offset="0.7575" style="stop-color:#090909;stop-opacity:0.4931"/>
	<stop  offset="0.8217" style="stop-color:#020202;stop-opacity:0.6274"/>
	<stop  offset="1" style="stop-color:#000000"/>
</radialGradient>
<circle fill="url(#SVGID_6_)" cx="755.149" cy="-30.694" r="50"/>
<g>
	<ellipse fill="#FFFFFF" cx="1231.818" cy="-554.561" rx="52.342" ry="50.831"/>
	<g>
		<path fill="#FFFFFF" d="M1111.651-306.161l-45.217-100.8h5.473l43.632,97.488h-2.736l43.633-97.488h5.184l-45.216,100.8H1111.651z
			"/>
		<path fill="#FFFFFF" d="M1298.849-306.161v-100.8h4.897v100.8H1298.849z"/>
		<path fill="#FFFFFF" d="M1340.608-306.161v-100.8h38.88c10.751,0,20.11,2.185,28.08,6.552c7.968,4.369,14.185,10.32,18.647,17.856
			c4.465,7.537,6.697,16.199,6.697,25.991s-2.232,18.457-6.697,25.992c-4.463,7.538-10.68,13.489-18.647,17.856
			c-7.97,4.369-17.329,6.552-28.08,6.552H1340.608z M1345.505-310.625h33.696c9.886,0,18.504-1.967,25.848-5.904
			c7.344-3.936,13.007-9.359,16.991-16.271c3.983-6.912,5.977-14.832,5.977-23.761c0-8.928-1.993-16.848-5.977-23.76
			c-3.984-6.912-9.647-12.334-16.991-16.271c-7.344-3.936-15.962-5.904-25.848-5.904h-33.696V-310.625z"/>
	</g>
</g>
<g>
	<path fill="#FFFFFF" d="M1044.309-248.45h20.735v2.208h-23.184v-33.6h22.464v2.208h-20.016V-248.45z M1044.021-264.385h18.192
		v2.159h-18.192V-264.385z"/>
	<path fill="#FFFFFF" d="M1073.972-246.242v-33.6h2.064l23.952,30.575h-1.104v-30.575h2.448v33.6h-2.016l-24-30.576h1.104v30.576
		H1073.972z"/>
	<path fill="#FFFFFF" d="M1119.476-246.242v-31.392h-12.096v-2.208h26.64v2.208h-12.097v31.392H1119.476z"/>
	<path fill="#FFFFFF" d="M1142.515-248.45h20.736v2.208h-23.184v-33.6h22.464v2.208h-20.017V-248.45z M1142.228-264.385h18.191
		v2.159h-18.191V-264.385z"/>
	<path fill="#FFFFFF" d="M1172.179-246.242v-33.6h12.048c2.816,0,5.232,0.448,7.248,1.344c2.016,0.896,3.568,2.184,4.656,3.864
		c1.088,1.68,1.633,3.72,1.633,6.119c0,2.337-0.545,4.345-1.633,6.024s-2.641,2.976-4.656,3.888s-4.432,1.368-7.248,1.368h-10.704
		l1.104-1.151v12.144H1172.179z M1174.627-258.242l-1.104-1.152h10.704c3.615,0,6.359-0.799,8.232-2.399
		c1.871-1.6,2.809-3.84,2.809-6.721c0-2.911-0.938-5.159-2.809-6.743c-1.873-1.584-4.617-2.376-8.232-2.376h-10.704l1.104-1.2
		V-258.242z M1195.506-246.242l-8.734-12.192h2.783l8.736,12.192H1195.506z"/>
	<path fill="#FFFFFF" d="M1212.69-246.242v-31.392h-12.096v-2.208h26.64v2.208h-12.096v31.392H1212.69z"/>
	<path fill="#FFFFFF" d="M1225.986-246.242l15.456-33.6h2.447l15.456,33.6h-2.64l-14.592-32.064h1.056l-14.544,32.064H1225.986z
		 M1231.65-255.698l0.815-2.063h20.112l0.816,2.063H1231.65z"/>
	<path fill="#FFFFFF" d="M1265.442-246.242v-33.6h2.447v33.6H1265.442z"/>
	<path fill="#FFFFFF" d="M1279.603-246.242v-33.6h2.063l23.952,30.575h-1.104v-30.575h2.448v33.6h-2.016l-24-30.576h1.104v30.576
		H1279.603z"/>
	<path fill="#FFFFFF" d="M1318.674-246.242v-33.6h2.063l15.6,26.928h-1.104l15.552-26.928h2.017l0.048,33.6h-2.4l-0.048-29.904
		h0.672l-14.736,25.44h-1.199l-14.784-25.44h0.72v29.904H1318.674z"/>
	<path fill="#FFFFFF" d="M1367.009-248.45h20.736v2.208h-23.184v-33.6h22.464v2.208h-20.017V-248.45z M1366.721-264.385h18.192
		v2.159h-18.192V-264.385z"/>
	<path fill="#FFFFFF" d="M1396.673-246.242v-33.6h2.063l23.952,30.575h-1.104v-30.575h2.448v33.6h-2.016l-24-30.576h1.104v30.576
		H1396.673z"/>
	<path fill="#FFFFFF" d="M1442.177-246.242v-31.392h-12.096v-2.208h26.64v2.208h-12.096v31.392H1442.177z"/>
</g>
<radialGradient id="SVGID_7_" cx="1224.5879" cy="-369.9956" r="37.4998" gradientTransform="matrix(1.3911 0 0 1.3555 -477.5375 144.9685)" gradientUnits="userSpaceOnUse">
	<stop  offset="0" style="stop-color:#000000"/>
	<stop  offset="1" style="stop-color:#FFFFFF"/>
</radialGradient>
<ellipse fill="url(#SVGID_7_)" cx="1225.986" cy="-356.561" rx="52.167" ry="50.831"/>
<radialGradient id="SVGID_8_" cx="1278.1338" cy="-357.9375" r="0" gradientUnits="userSpaceOnUse">
	<stop  offset="0" style="stop-color:#000000"/>
	<stop  offset="1" style="stop-color:#FFFFFF"/>
</radialGradient>
<path fill="url(#SVGID_8_)" d="M1278.134-357.938"/>
<g>
	<g>
		<path fill="#131313" d="M1111.651-66.011l-45.217-100.8h5.473l43.632,97.488h-2.736l43.633-97.488h5.184l-45.216,100.8H1111.651z"
			/>
		<path fill="#6B6B6B" d="M1306.962-65.32v-100.8h4.897v100.8H1306.962z"/>
		<path fill="#131313" d="M1340.608-66.011v-100.8h38.88c10.751,0,20.11,2.185,28.08,6.552c7.968,4.369,14.185,10.32,18.647,17.856
			c4.465,7.537,6.697,16.199,6.697,25.991s-2.232,18.457-6.697,25.992c-4.463,7.538-10.68,13.489-18.647,17.856
			c-7.97,4.369-17.329,6.552-28.08,6.552H1340.608z M1345.505-70.475h33.696c9.886,0,18.504-1.967,25.848-5.904
			c7.344-3.936,13.007-9.359,16.991-16.271c3.983-6.912,5.977-14.832,5.977-23.761c0-8.928-1.993-16.848-5.977-23.76
			c-3.984-6.912-9.647-12.334-16.991-16.271c-7.344-3.936-15.962-5.904-25.848-5.904h-33.696V-70.475z"/>
	</g>
</g>
<g>
	<path fill="#131313" d="M1044.309-8.3h20.735v2.208h-23.184v-33.6h22.464v2.208h-20.016V-8.3z M1044.021-24.236h18.192v2.159
		h-18.192V-24.236z"/>
	<path fill="#131313" d="M1073.972-6.092v-33.6h2.064l23.952,30.575h-1.104v-30.575h2.448v33.6h-2.016l-24-30.576h1.104v30.576
		H1073.972z"/>
	<path fill="#131313" d="M1119.476-6.092v-31.392h-12.096v-2.208h26.64v2.208h-12.097v31.392H1119.476z"/>
	<path fill="#131313" d="M1142.515-8.3h20.736v2.208h-23.184v-33.6h22.464v2.208h-20.017V-8.3z M1142.228-24.236h18.191v2.159
		h-18.191V-24.236z"/>
	<path fill="#131313" d="M1172.179-6.092v-33.6h12.048c2.816,0,5.232,0.448,7.248,1.344c2.016,0.896,3.568,2.184,4.656,3.864
		c1.088,1.68,1.633,3.72,1.633,6.119c0,2.337-0.545,4.345-1.633,6.024s-2.641,2.976-4.656,3.888s-4.432,1.368-7.248,1.368h-10.704
		l1.104-1.151v12.144H1172.179z M1174.627-18.092l-1.104-1.152h10.704c3.615,0,6.359-0.799,8.232-2.399
		c1.871-1.6,2.809-3.84,2.809-6.721c0-2.911-0.938-5.159-2.809-6.743c-1.873-1.584-4.617-2.376-8.232-2.376h-10.704l1.104-1.2
		V-18.092z M1195.506-6.092l-8.734-12.192h2.783l8.736,12.192H1195.506z"/>
	<path fill="#131313" d="M1212.69-6.092v-31.392h-12.096v-2.208h26.64v2.208h-12.096v31.392H1212.69z"/>
	<path fill="#131313" d="M1225.986-6.092l15.456-33.6h2.447l15.456,33.6h-2.64l-14.592-32.064h1.056l-14.544,32.064H1225.986z
		 M1231.65-15.548l0.815-2.063h20.112l0.816,2.063H1231.65z"/>
	<path fill="#131313" d="M1265.442-6.092v-33.6h2.447v33.6H1265.442z"/>
	<path fill="#131313" d="M1279.603-6.092v-33.6h2.063l23.952,30.575h-1.104v-30.575h2.448v33.6h-2.016l-24-30.576h1.104v30.576
		H1279.603z"/>
	<path fill="#131313" d="M1318.674-6.092v-33.6h2.063l15.6,26.928h-1.104l15.552-26.928h2.017l0.048,33.6h-2.4l-0.048-29.904h0.672
		l-14.736,25.44h-1.199l-14.784-25.44h0.72v29.904H1318.674z"/>
	<path fill="#131313" d="M1367.009-8.3h20.736v2.208h-23.184v-33.6h22.464v2.208h-20.017V-8.3z M1366.721-24.236h18.192v2.159
		h-18.192V-24.236z"/>
	<path fill="#131313" d="M1396.673-6.092v-33.6h2.063l23.952,30.575h-1.104v-30.575h2.448v33.6h-2.016l-24-30.576h1.104v30.576
		H1396.673z"/>
	<path fill="#131313" d="M1442.177-6.092v-31.392h-12.096v-2.208h26.64v2.208h-12.096v31.392H1442.177z"/>
</g>
<path fill="#131313" d="M1242.715-132.685c14.927,26.258,13.665,55.141-2.816,64.51c-16.484,9.37-41.948-4.321-56.874-30.58
	c-14.925-26.257-13.664-55.14,2.819-64.51C1202.327-172.635,1227.789-158.942,1242.715-132.685z"/>
<path d="M1278.134-117.788"/>
<path fill="none" stroke="#898989" stroke-miterlimit="10" d="M1177.965-109.244c0,0,57.462-56.439,34.905-86.598"/>
<path fill="none" stroke="#898989" stroke-miterlimit="10" d="M1199.367-76.331c0,0,56.439-62.56,86.598-38.002"/>
<path fill="none" stroke="#898989" stroke-miterlimit="10" d="M1186.781-92.745c0,0,80.685-54.21,81.108-74.066"/>
<circle fill="#FFFFFF" stroke="#000000" stroke-width="0.25" stroke-miterlimit="10" cx="1753.314" cy="-294.841" r="20"/>
<circle cx="1753.314" cy="-294.841" r="10"/>
<circle fill="none" stroke="#000000" stroke-width="0.25" stroke-miterlimit="10" cx="1639.981" cy="-298.174" r="50"/>
<circle fill="#FFFFFF" stroke="#000000" stroke-width="0.25" stroke-miterlimit="10" cx="1639.981" cy="-298.174" r="40"/>
<circle fill="none" stroke="#000000" stroke-width="0.25" stroke-miterlimit="10" cx="1639.981" cy="-298.174" r="30"/>
<circle fill="#FFFFFF" stroke="#000000" stroke-width="0.25" stroke-miterlimit="10" cx="1639.981" cy="-298.174" r="20"/>
<circle cx="1639.981" cy="-298.174" r="10"/>
<g>
	<path stroke="#FFFFFF" stroke-width="0.25" stroke-miterlimit="10" d="M1948.789-186.99c6.358,12.156,17.358,19.156,29.358,21.156
		c15,1,29-9,30-24c1-8-2-16-10-20c-6-3-14-3-20,1c-1-6,5-9,10-10c13-2,24,6,29,17c5,13,0,27-9,36c-9,8-20,12-32,11
		c-15-2-28-11-35.843-23.603c-3.54-4.884-5.271-5.481-6.793-5.526c-21.364,0.129-38.364-14.871-46.364-32.871
		c-0.833-2.083-1.507-4.194-2.027-6.32c-0.092-1.151,0.234-2.48,1.241-4.265c23.786-13.415,31.786-46.415,14.786-68.415
		c-10-12-24-19-40-16c-15,3-26,14-30,28c-5,22,13,41,34,41c-11,1-23-2-30-11c-9-12-11-28-3-42c7-12,19-19,32-21
		c19-2,36,9,45.262,24.352c2.248,4.031,3.837,6.4,6.201,11.839c2.107-0.89,4.287-1.628,6.537-2.191
		c23.625-6.125,48.016,6.125,57.652,27.039c1.314,2.992,2.328,6.161-2.502,10.185c-20.15,6.776-35.15,28.776-30.773,50.994
		C1947.076-191.968,1947.853-189.441,1948.789-186.99z"/>
	<path fill="#FFFFFF" stroke="#000000" stroke-width="0.25" stroke-miterlimit="10" d="M1973.209-245.428
		c-20.062,9.595-34.062,29.595-28.062,52.595c6,22,30,36,51,25c15-8,19-28,10-42c14,7,12,27,4,39c-12,16-33,19-50,10
		c-12-7-19-19-25.27-31.22c-1.843-0.825-3.537-1.06-5.23-1.53c-10-1.25-19.5-6.25-26.5-14.25c-2.333-2.667-4.223-5.583-5.686-8.662
		s-2.5-6.319-3.129-9.634c-0.186-1.704-1.186-4.704-0.186-5.704c22-22,23-60-5-76c-17-9-39-6-52,8c11-17,34-19,51-12
		c13,7,22,20,25.95,33.97c1.176,3.515,1.976,4.579,2.81,6.287c18.254-7.807,40.791-1.25,51.845,16.117
		C1970.673-252.319,1972.186-248.934,1973.209-245.428z"/>
	<path d="M1960.356-250.415c0.982,1.382,1.814,2.829,2.5,4.323c-0.626,2.301-1.254,4.574-6.727,10.407
		c-16.982,16.851-17.982,46.851,0.018,63.851c14,12,34,12,49,2c-9,10-22,14-35,11c-18-5-31-20-33.373-37.695
		c-1.393-5.59-2.712-6.56-4.063-6.939c-13.842-1.227-26.064-11.366-28.564-26.366c-0.333-2.5-0.361-4.944-0.115-7.306
		c0.245-2.361,0.764-4.639,1.522-6.806c2.593-3.889,2.593-9.889,7.186-11.444c1.593-1.611,3.361-3.056,5.272-4.306
		c1.912-1.25,3.968-2.305,6.135-3.139c11-3,22-1,30.865,6.208C1957.046-254.812,1958.854-252.723,1960.356-250.415z"/>
	<path fill="#FFFFFF" stroke="#000000" stroke-width="0.25" stroke-miterlimit="10" d="M1948.699-249.098
		c2.362,2.316,4.134,4.991,5.29,7.825c0.441,1.569,0.521,3.335,0.199,5.42c-16.041,18.019-17.041,45.019-2.041,64.019
		c-10-8-13-20-14.291-32.225c-0.491-9.055-2.876-9.256-5.265-9.627c-9.556-1.481-17.777-9.481-18.444-20.148
		c0-14,15-23,27.54-19.164C1944.219-252.188,1946.616-250.878,1948.699-249.098z"/>
	<path d="M1940.35-242.857c6.798,5.024,6.798,14.024-0.202,18.024c-4,3-9,1-12-2c-5-3-3-15,4.589-16.301
		C1935.137-243.996,1937.866-243.976,1940.35-242.857z"/>
</g>
<circle cx="1608.148" cy="-259.5" r="2.5"/>
<circle cx="1603.148" cy="-313.833" r="2.5"/>
<circle cx="1669.981" cy="-296.5" r="2.5"/>
<circle cx="1653.981" cy="-312.341" r="2.5"/>
<radialGradient id="SVGID_9_" cx="217.3418" cy="-44.1157" r="36.3321" gradientUnits="userSpaceOnUse">
	<stop  offset="0" style="stop-color:#FFFFFF"/>
	<stop  offset="0.658" style="stop-color:#585858"/>
	<stop  offset="1" style="stop-color:#000000"/>
</radialGradient>
<path fill="url(#SVGID_9_)" d="M238.654-70.539c-12.82-7.714-29.82-3.714-39.82,7.286c-11,13-10,31,3,40c9,7,20,7,29,1
	c12-9,9-25-2-33c11,9,9,25-3,32c-11,5-23,0-28-10c-3-7-4-14-1-21c5-11,17-18,30-16c19,3,31,24,24,42c7-18-5-39-24-42
	c-16-2-32,10-31,26c1,11,10,23,22,21c-7-1-12-5-16-11c-7-13,1-29,16-32c13-3,25,5,30,17c7,17-5,36-21,41c-21,6-42-10-45-31
	c2,19,19,33,38,32c13-1,23-9,28-21c4-9,2-19-3-28c-8-11-21-14-33-8c-10,5-13,17-10,27c-3-9,2-21,11-25c13-6,28,2,33,15
	c4,11-1,22-9,30c-17,15-43,5-50-15c-8-22,7-47,30-49c-19,3-34,21-32,41c2,13,10,24,23,28c8,3,17,2,24-2c11-6,17-20,13-32
	s-17-21-30-16c8-2,16,2,22,8s9,15,6,23c-5,12-17,19-29,18c-13-1-23-11-26-24c-3-16,5-31,20-38c7-3,14-3,21-3c-18-1-37,9-40,28
	c-2,14,4,26,15,33s24,3,33-6c9-10,9-26-3-33c-7-4-16-4-22,1c13-8,30,4,28,18s-16,22-29,19c-7-2-12-6-16-11c-7-12-5-26,5-36
	c9-9,22-12,34.39-7.063C237.267-71.205,238.654-70.539,238.654-70.539z"/>
</svg>
