<?xml version="1.0" encoding="utf-8"?>
<!-- Generator: Adobe Illustrator 16.0.3, SVG Export Plug-In . SVG Version: 6.00 Build 0)  -->
<!DOCTYPE svg PUBLIC "-//W3C//DTD SVG 1.1//EN" "http://www.w3.org/Graphics/SVG/1.1/DTD/svg11.dtd">
<svg version="1.1" id="Layer_1" xmlns="http://www.w3.org/2000/svg" xmlns:xlink="http://www.w3.org/1999/xlink" x="0px" y="0px"
	 width="414.86px" height="187.222px" viewBox="0 0 414.86 187.222" enable-background="new 0 0 414.86 187.222"
	 xml:space="preserve">
<g>
	
		<radialGradient id="SVGID_1_" cx="137.5352" cy="73.1602" r="49.1808" gradientTransform="matrix(1.0547 0 0 1.0431 33.2347 -11.1697)" gradientUnits="userSpaceOnUse">
		<stop  offset="0" style="stop-color:#4A188F"/>
		<stop  offset="1" style="stop-color:#000000"/>
	</radialGradient>
	<ellipse fill="url(#SVGID_1_)" cx="178.294" cy="65.145" rx="52.342" ry="50.831"/>
	<g>
		<path d="M69.791,115.544l-45.217-100.8h5.473l43.632,97.488h-2.736l43.633-97.488h5.184l-45.216,100.8H69.791z"/>
		<path d="M256.988,115.544v-100.8h4.897v100.8H256.988z"/>
		<path d="M298.748,115.544v-100.8h38.88c10.751,0,20.11,2.185,28.08,6.552c7.968,4.369,14.185,10.32,18.647,17.856
			c4.465,7.537,6.697,16.199,6.697,25.991s-2.232,18.457-6.697,25.992c-4.463,7.538-10.68,13.489-18.647,17.856
			c-7.97,4.369-17.329,6.552-28.08,6.552H298.748z M303.645,111.081h33.696c9.886,0,18.504-1.967,25.848-5.904
			c7.344-3.936,13.007-9.359,16.991-16.271c3.983-6.912,5.977-14.832,5.977-23.761c0-8.928-1.993-16.848-5.977-23.76
			c-3.984-6.912-9.647-12.334-16.991-16.271c-7.344-3.936-15.962-5.904-25.848-5.904h-33.696V111.081z"/>
	</g>
</g>
<g>
	<path d="M2.448,173.255h20.735v2.208H0v-33.6h22.464v2.208H2.448V173.255z M2.16,157.32h18.192v2.159H2.16V157.32z"/>
	<path d="M32.111,175.463v-33.6h2.064l23.952,30.575h-1.104v-30.575h2.448v33.6h-2.016l-24-30.576h1.104v30.576H32.111z"/>
	<path d="M77.615,175.463v-31.392H65.52v-2.208h26.64v2.208H80.063v31.392H77.615z"/>
	<path d="M100.654,173.255h20.736v2.208H98.207v-33.6h22.464v2.208h-20.017V173.255z M100.367,157.32h18.191v2.159h-18.191V157.32z"
		/>
	<path d="M130.318,175.463v-33.6h12.048c2.816,0,5.232,0.448,7.248,1.344c2.016,0.896,3.568,2.184,4.656,3.864
		c1.088,1.68,1.633,3.72,1.633,6.119c0,2.337-0.545,4.345-1.633,6.024s-2.641,2.976-4.656,3.888s-4.432,1.368-7.248,1.368h-10.704
		l1.104-1.151v12.144H130.318z M132.767,163.463l-1.104-1.152h10.704c3.615,0,6.359-0.799,8.232-2.399
		c1.871-1.6,2.809-3.84,2.809-6.721c0-2.911-0.938-5.159-2.809-6.743c-1.873-1.584-4.617-2.376-8.232-2.376h-10.704l1.104-1.2
		V163.463z M153.646,175.463l-8.734-12.192h2.783l8.736,12.192H153.646z"/>
	<path d="M170.83,175.463v-31.392h-12.096v-2.208h26.64v2.208h-12.096v31.392H170.83z"/>
	<path d="M184.126,175.463l15.456-33.6h2.447l15.456,33.6h-2.64l-14.592-32.064h1.056l-14.544,32.064H184.126z M189.79,166.007
		l0.815-2.063h20.112l0.816,2.063H189.79z"/>
	<path d="M223.582,175.463v-33.6h2.447v33.6H223.582z"/>
	<path d="M237.742,175.463v-33.6h2.063l23.952,30.575h-1.104v-30.575h2.448v33.6h-2.016l-24-30.576h1.104v30.576H237.742z"/>
	<path d="M276.813,175.463v-33.6h2.063l15.6,26.928h-1.104l15.552-26.928h2.017l0.048,33.6h-2.4l-0.048-29.904h0.672L294.477,171
		h-1.199l-14.784-25.44h0.72v29.904H276.813z"/>
	<path d="M325.148,173.255h20.736v2.208h-23.184v-33.6h22.464v2.208h-20.017V173.255z M324.86,157.32h18.192v2.159H324.86V157.32z"
		/>
	<path d="M354.813,175.463v-33.6h2.063l23.952,30.575h-1.104v-30.575h2.448v33.6h-2.016l-24-30.576h1.104v30.576H354.813z"/>
	<path d="M400.316,175.463v-31.392h-12.096v-2.208h26.64v2.208h-12.096v31.392H400.316z"/>
</g>
<radialGradient id="SVGID_2_" cx="176.8223" cy="63.0259" r="36.3321" gradientUnits="userSpaceOnUse">
	<stop  offset="0" style="stop-color:#000000"/>
	<stop  offset="0.2266" style="stop-color:#030303"/>
	<stop  offset="0.3628" style="stop-color:#0B0B0B"/>
	<stop  offset="0.4751" style="stop-color:#191919"/>
	<stop  offset="0.5745" style="stop-color:#2E2E2E"/>
	<stop  offset="0.6653" style="stop-color:#484848"/>
	<stop  offset="0.7499" style="stop-color:#686868"/>
	<stop  offset="0.8297" style="stop-color:#8F8F8F"/>
	<stop  offset="0.9055" style="stop-color:#BBBBBB"/>
	<stop  offset="0.9759" style="stop-color:#ECECEC"/>
	<stop  offset="1" style="stop-color:#FFFFFF"/>
</radialGradient>
<path fill="url(#SVGID_2_)" d="M198.135,36.603c-12.82-7.714-29.82-3.714-39.82,7.286c-11,13-10,31,3,40c9,7,20,7,29,1
	c12-9,9-25-2-33c11,9,9,25-3,32c-11,5-23,0-28-10c-3-7-4-14-1-21c5-11,17-18,30-16c19,3,31,24,24,42c7-18-5-39-24-42
	c-16-2-32,10-31,26c1,11,10,23,22,21c-7-1-12-5-16-11c-7-13,1-29,16-32c13-3,25,5,30,17c7,17-5,36-21,41c-21,6-42-10-45-31
	c2,19,19,33,38,32c13-1,23-9,28-21c4-9,2-19-3-28c-8-11-21-14-33-8c-10,5-13,17-10,27c-3-9,2-21,11-25c13-6,28,2,33,15
	c4,11-1,22-9,30c-17,15-43,5-50-15c-8-22,7-47,30-49c-19,3-34,21-32,41c2,13,10,24,23,28c8,3,17,2,24-2c11-6,17-20,13-32
	s-17-21-30-16c8-2,16,2,22,8s9,15,6,23c-5,12-17,19-29,18c-13-1-23-11-26-24c-3-16,5-31,20-38c7-3,14-3,21-3c-18-1-37,9-40,28
	c-2,14,4,26,15,33s24,3,33-6c9-10,9-26-3-33c-7-4-16-4-22,1c13-8,30,4,28,18s-16,22-29,19c-7-2-12-6-16-11c-7-12-5-26,5-36
	c9-9,22-12,34.39-7.063C196.747,35.937,198.135,36.603,198.135,36.603z"/>
</svg>
