<?xml version="1.0" encoding="utf-8"?>
<!-- Generator: Adobe Illustrator 16.0.3, SVG Export Plug-In . SVG Version: 6.00 Build 0)  -->
<!DOCTYPE svg PUBLIC "-//W3C//DTD SVG 1.1//EN" "http://www.w3.org/Graphics/SVG/1.1/DTD/svg11.dtd">
<svg version="1.1" id="Layer_1" xmlns="http://www.w3.org/2000/svg" xmlns:xlink="http://www.w3.org/1999/xlink" x="0px" y="0px"
	 width="100px" height="100px" viewBox="0 0 100 100" enable-background="new 0 0 100 100" xml:space="preserve">
<circle stroke="#FFFFFF" stroke-width="0.25" stroke-miterlimit="10" cx="1752.907" cy="-515.424" r="50"/>
<circle fill="#FFFFFF" stroke="#000000" stroke-width="0.25" stroke-miterlimit="10" cx="1752.907" cy="-515.424" r="40"/>
<circle cx="1752.907" cy="-515.424" r="30"/>
<rect x="1002.802" y="-656.25" stroke="#FFFFFF" stroke-miterlimit="10" width="499.85" height="500"/>
<text transform="matrix(1 0 0 1 -796.835 -139.6758)" font-family="'MontserratRoman-ExtraLight'" font-size="144">VOID</text>
<text transform="matrix(1 0 0 1 -816.0776 -79.3271)" font-family="'MontserratRoman-Light'" font-size="48">ENTERTAINMENT</text>
<radialGradient id="SVGID_1_" cx="-279.2881" cy="-338.3232" r="49.1805" gradientTransform="matrix(1.0547 0 0 1.0431 33.257 10.4294)" gradientUnits="userSpaceOnUse">
	<stop  offset="0" style="stop-color:#92278F"/>
	<stop  offset="1" style="stop-color:#000000"/>
</radialGradient>
<ellipse fill="url(#SVGID_1_)" cx="-261.308" cy="-342.475" rx="52.342" ry="50.83"/>
<g>
	
		<radialGradient id="SVGID_2_" cx="-688.8926" cy="49.415" r="49.1812" gradientTransform="matrix(1.0547 0 0 1.0431 33.257 10.4294)" gradientUnits="userSpaceOnUse">
		<stop  offset="0" style="stop-color:#92278F"/>
		<stop  offset="1" style="stop-color:#000000"/>
	</radialGradient>
	<ellipse fill="url(#SVGID_2_)" cx="-693.317" cy="61.975" rx="52.342" ry="50.831"/>
	<g>
		<path d="M-801.821,112.375l-45.216-100.8h5.472l43.632,97.488h-2.736l43.632-97.488h5.184l-45.216,100.8H-801.821z"/>
		<path d="M-614.623,112.375v-100.8h4.896v100.8H-614.623z"/>
		<path d="M-572.863,112.375v-100.8h38.88c10.75,0,20.111,2.185,28.08,6.552c7.968,4.369,14.185,10.32,18.648,17.856
			c4.463,7.537,6.696,16.199,6.696,25.991s-2.233,18.457-6.696,25.992c-4.464,7.538-10.681,13.489-18.648,17.856
			c-7.969,4.369-17.33,6.552-28.08,6.552H-572.863z M-567.968,107.911h33.697c9.886,0,18.504-1.967,25.848-5.904
			c7.344-3.936,13.006-9.359,16.992-16.271c3.982-6.912,5.976-14.832,5.976-23.761c0-8.928-1.993-16.848-5.976-23.76
			c-3.986-6.912-9.648-12.334-16.992-16.271c-7.344-3.936-15.962-5.904-25.848-5.904h-33.697V107.911z"/>
	</g>
</g>
<g>
	<path d="M-869.163,170.086h20.736v2.208h-23.184v-33.6h22.464v2.208h-20.016V170.086z M-869.451,154.15h18.192v2.159h-18.192
		V154.15z"/>
	<path d="M-839.5,172.294v-33.6h2.064l23.952,30.575h-1.104v-30.575h2.448v33.6h-2.016l-24-30.576h1.104v30.576H-839.5z"/>
	<path d="M-793.996,172.294v-31.392h-12.096v-2.208h26.64v2.208h-12.096v31.392H-793.996z"/>
	<path d="M-770.957,170.086h20.736v2.208h-23.184v-33.6h22.464v2.208h-20.016V170.086z M-771.245,154.15h18.192v2.159h-18.192
		V154.15z"/>
	<path d="M-741.293,172.294v-33.6h12.048c2.816,0,5.232,0.448,7.248,1.344c2.016,0.896,3.568,2.184,4.656,3.864
		c1.088,1.68,1.633,3.72,1.633,6.119c0,2.337-0.545,4.345-1.633,6.024s-2.641,2.976-4.656,3.888s-4.432,1.368-7.248,1.368h-10.704
		l1.104-1.151v12.144H-741.293z M-738.845,160.294l-1.104-1.152h10.704c3.615,0,6.359-0.799,8.232-2.399
		c1.871-1.6,2.809-3.84,2.809-6.721c0-2.911-0.938-5.159-2.809-6.743c-1.873-1.584-4.617-2.376-8.232-2.376h-10.704l1.104-1.2
		V160.294z M-717.966,172.294l-8.734-12.192h2.783l8.736,12.192H-717.966z"/>
	<path d="M-700.781,172.294v-31.392h-12.096v-2.208h26.64v2.208h-12.096v31.392H-700.781z"/>
	<path d="M-687.485,172.294l15.456-33.6h2.447l15.456,33.6h-2.64l-14.592-32.064h1.056l-14.544,32.064H-687.485z M-681.821,162.838
		l0.815-2.063h20.112l0.816,2.063H-681.821z"/>
	<path d="M-648.029,172.294v-33.6h2.447v33.6H-648.029z"/>
	<path d="M-633.869,172.294v-33.6h2.063l23.952,30.575h-1.104v-30.575h2.448v33.6h-2.016l-24-30.576h1.104v30.576H-633.869z"/>
	<path d="M-594.798,172.294v-33.6h2.063l15.6,26.928h-1.104l15.552-26.928h2.017l0.048,33.6h-2.4l-0.048-29.904h0.672l-14.736,25.44
		h-1.199l-14.784-25.44h0.72v29.904H-594.798z"/>
	<path d="M-546.463,170.086h20.736v2.208h-23.184v-33.6h22.464v2.208h-20.017V170.086z M-546.751,154.15h18.192v2.159h-18.192
		V154.15z"/>
	<path d="M-516.799,172.294v-33.6h2.063l23.952,30.575h-1.104v-30.575h2.448v33.6h-2.016l-24-30.576h1.104v30.576H-516.799z"/>
	<path d="M-471.295,172.294v-31.392h-12.096v-2.208h26.64v2.208h-12.096v31.392H-471.295z"/>
</g>
<g>
	
		<radialGradient id="SVGID_3_" cx="141.7744" cy="-167.519" r="49.1805" gradientTransform="matrix(1.0547 0 0 1.0431 33.257 10.4294)" gradientUnits="userSpaceOnUse">
		<stop  offset="0" style="stop-color:#000000"/>
		<stop  offset="0.0228" style="stop-color:#140824"/>
		<stop  offset="0.0479" style="stop-color:#250F44"/>
		<stop  offset="0.0753" style="stop-color:#34155E"/>
		<stop  offset="0.1052" style="stop-color:#3F1973"/>
		<stop  offset="0.139" style="stop-color:#471D81"/>
		<stop  offset="0.1799" style="stop-color:#4C1E89"/>
		<stop  offset="0.2473" style="stop-color:#4D1F8C"/>
		<stop  offset="0.3324" style="stop-color:#51248F"/>
		<stop  offset="0.4379" style="stop-color:#5D3496"/>
		<stop  offset="0.554" style="stop-color:#714DA2"/>
		<stop  offset="0.6779" style="stop-color:#8C70B2"/>
		<stop  offset="0.808" style="stop-color:#AF9DC8"/>
		<stop  offset="0.9412" style="stop-color:#D9D4E1"/>
		<stop  offset="1" style="stop-color:#EEEEEE"/>
	</radialGradient>
	<ellipse fill="url(#SVGID_3_)" cx="182.787" cy="-164.309" rx="52.342" ry="50.83"/>
	
		<radialGradient id="SVGID_4_" cx="15.873" cy="37.9355" r="46.4301" gradientTransform="matrix(1.0547 0 0 1.0431 33.257 10.4294)" gradientUnits="userSpaceOnUse">
		<stop  offset="0" style="stop-color:#000000"/>
		<stop  offset="0.0228" style="stop-color:#140824"/>
		<stop  offset="0.0479" style="stop-color:#250F44"/>
		<stop  offset="0.0753" style="stop-color:#34155E"/>
		<stop  offset="0.1052" style="stop-color:#3F1973"/>
		<stop  offset="0.139" style="stop-color:#471D81"/>
		<stop  offset="0.1799" style="stop-color:#4C1E89"/>
		<stop  offset="0.2473" style="stop-color:#4D1F8C"/>
		<stop  offset="0.3324" style="stop-color:#51248F"/>
		<stop  offset="0.4379" style="stop-color:#5D3496"/>
		<stop  offset="0.554" style="stop-color:#714DA2"/>
		<stop  offset="0.6779" style="stop-color:#8C70B2"/>
		<stop  offset="0.808" style="stop-color:#AF9DC8"/>
		<stop  offset="0.9412" style="stop-color:#D9D4E1"/>
		<stop  offset="1" style="stop-color:#EEEEEE"/>
	</radialGradient>
	<ellipse fill="url(#SVGID_4_)" cx="50" cy="50" rx="49.415" ry="47.988"/>
	<g>
		<path fill="#EEEEEE" d="M74.284-113.908l-45.217-100.8h5.473l43.632,97.488h-2.736l43.633-97.488h5.184l-45.216,100.8H74.284z"/>
		<path fill="#EEEEEE" d="M261.481-113.908v-100.8h4.897v100.8H261.481z"/>
		<path fill="#EEEEEE" d="M303.241-113.908v-100.8h38.88c10.751,0,20.11,2.185,28.08,6.552c7.968,4.369,14.185,10.32,18.647,17.856
			c4.465,7.537,6.697,16.199,6.697,25.991c0,9.792-2.232,18.458-6.697,25.993c-4.463,7.537-10.68,13.488-18.647,17.855
			c-7.97,4.369-17.329,6.553-28.08,6.553H303.241z M308.138-118.373h33.696c9.886,0,18.504-1.967,25.848-5.904
			c7.344-3.936,13.007-9.359,16.991-16.271c3.983-6.912,5.977-14.832,5.977-23.76c0-8.928-1.993-16.848-5.977-23.76
			c-3.984-6.912-9.647-12.334-16.991-16.271c-7.344-3.936-15.962-5.904-25.848-5.904h-33.696V-118.373z"/>
	</g>
</g>
<g>
	<path fill="#EEEEEE" d="M6.941-56.197h20.735v2.207H4.493v-33.6h22.464v2.209H6.941V-56.197z M6.653-72.133h18.192v2.158H6.653
		V-72.133z"/>
	<path fill="#EEEEEE" d="M36.604-53.99v-33.6h2.064l23.952,30.576h-1.104V-87.59h2.448v33.6h-2.016l-24-30.576h1.104v30.576H36.604z
		"/>
	<path fill="#EEEEEE" d="M82.108-53.99v-31.391H70.013v-2.209h26.64v2.209H84.556v31.391H82.108z"/>
	<path fill="#EEEEEE" d="M105.147-56.197h20.736v2.207H102.7v-33.6h22.464v2.209h-20.017V-56.197z M104.86-72.133h18.191v2.158
		H104.86V-72.133z"/>
	<path fill="#EEEEEE" d="M134.812-53.99v-33.6h12.048c2.816,0,5.232,0.449,7.248,1.344c2.016,0.896,3.568,2.184,4.656,3.865
		c1.088,1.68,1.633,3.719,1.633,6.119c0,2.336-0.545,4.344-1.633,6.023s-2.641,2.977-4.656,3.889s-4.432,1.367-7.248,1.367h-10.704
		l1.104-1.15v12.143H134.812z M137.26-65.99l-1.104-1.152h10.704c3.615,0,6.359-0.799,8.232-2.398c1.871-1.6,2.809-3.84,2.809-6.721
		c0-2.912-0.938-5.16-2.809-6.744c-1.873-1.584-4.617-2.375-8.232-2.375h-10.704l1.104-1.201V-65.99z M158.139-53.99l-8.734-12.191
		h2.783l8.736,12.191H158.139z"/>
	<path fill="#EEEEEE" d="M175.323-53.99v-31.391h-12.096v-2.209h26.64v2.209h-12.096v31.391H175.323z"/>
	<path fill="#EEEEEE" d="M188.619-53.99l15.456-33.6h2.447l15.456,33.6h-2.64l-14.592-32.064h1.056L191.259-53.99H188.619z
		 M194.283-63.445l0.815-2.064h20.112l0.816,2.064H194.283z"/>
	<path fill="#EEEEEE" d="M228.075-53.99v-33.6h2.447v33.6H228.075z"/>
	<path fill="#EEEEEE" d="M242.235-53.99v-33.6h2.063l23.952,30.576h-1.104V-87.59h2.448v33.6h-2.016l-24-30.576h1.104v30.576
		H242.235z"/>
	<path fill="#EEEEEE" d="M281.307-53.99v-33.6h2.063l15.6,26.928h-1.104l15.552-26.928h2.017l0.048,33.6h-2.4l-0.048-29.904h0.672
		L298.97-58.453h-1.199l-14.784-25.441h0.72v29.904H281.307z"/>
	<path fill="#EEEEEE" d="M329.642-56.197h20.736v2.207h-23.184v-33.6h22.464v2.209h-20.017V-56.197z M329.354-72.133h18.192v2.158
		h-18.192V-72.133z"/>
	<path fill="#EEEEEE" d="M359.306-53.99v-33.6h2.063l23.952,30.576h-1.104V-87.59h2.448v33.6h-2.016l-24-30.576h1.104v30.576
		H359.306z"/>
	<path fill="#EEEEEE" d="M404.81-53.99v-31.391h-12.096v-2.209h26.64v2.209h-12.096v31.391H404.81z"/>
</g>
<path fill="#EA1C1C" stroke="#FFFFFF" stroke-width="10" stroke-miterlimit="10" d="M-642.816-361.274
	c0-13.329,5.08-26.656,15.245-36.818c3.297-3.299,6.931-6.053,10.787-8.279c-8.027-4.637-17.026-6.966-26.032-6.966
	s-18.004,2.329-26.032,6.966c3.856,2.227,7.49,4.98,10.787,8.279C-647.896-387.93-642.816-374.603-642.816-361.274z"/>
<path fill="#6600FF" stroke="#FFFFFF" stroke-width="10" stroke-miterlimit="10" d="M-597.718-387.306
	c4.637-8.029,6.965-17.028,6.965-26.032c-9.003,0-18.002,2.329-26.031,6.966c3.855,2.227,7.488,4.98,10.787,8.279
	C-602.699-394.796-599.945-391.162-597.718-387.306z"/>
<path fill="#6600FF" stroke="#FFFFFF" stroke-width="10" stroke-miterlimit="10" d="M-642.816-361.274
	c13.329,0,26.656-5.08,36.818-15.245c3.299-3.297,6.052-6.931,8.279-10.787c-2.227-3.856-4.98-7.49-8.279-10.787
	c-3.299-3.299-6.931-6.053-10.787-8.279c-3.856,2.227-7.49,4.98-10.787,8.279C-637.736-387.93-642.816-374.603-642.816-361.274z"/>
<path fill="#0033CC" stroke="#FFFFFF" stroke-width="10" stroke-miterlimit="10" d="M-597.718-387.306
	c-2.227,3.856-4.98,7.49-8.279,10.787c-10.163,10.165-23.489,15.245-36.818,15.245c13.329,0,26.656,5.08,36.818,15.245
	c3.299,3.297,6.052,6.931,8.279,10.787c4.639-8.029,6.965-17.029,6.965-26.032C-590.753-370.277-593.08-379.276-597.718-387.306z"/>
<path fill="#00FFD0" stroke="#FFFFFF" stroke-width="10" stroke-miterlimit="10" d="M-597.718-335.242
	c-2.227,3.855-4.98,7.49-8.279,10.787c-3.296,3.298-6.931,6.052-10.787,8.279c8.029,4.637,17.028,6.965,26.031,6.965
	C-590.753-318.214-593.082-327.213-597.718-335.242z"/>
<path fill="#00FFD0" stroke="#FFFFFF" stroke-width="10" stroke-miterlimit="10" d="M-597.718-335.242
	c-2.227-3.856-4.98-7.49-8.279-10.787c-10.163-10.165-23.489-15.245-36.818-15.245c0,13.329,5.08,26.656,15.245,36.818
	c3.297,3.298,6.931,6.052,10.787,8.279c3.855-2.227,7.49-4.981,10.787-8.279C-602.699-327.752-599.945-331.387-597.718-335.242z"/>
<path fill="#00FF00" stroke="#FFFFFF" stroke-width="10" stroke-miterlimit="10" d="M-616.784-316.176
	c-3.856-2.227-7.49-4.981-10.787-8.279c-10.165-10.163-15.245-23.489-15.245-36.818c0,13.329-5.08,26.656-15.245,36.818
	c-3.297,3.298-6.931,6.052-10.787,8.279c8.027,4.639,17.026,6.965,26.032,6.965S-624.812-311.538-616.784-316.176z"/>
<path fill="#FF7300" stroke="#FFFFFF" stroke-width="10" stroke-miterlimit="10" d="M-668.848-406.372
	c-8.029-4.637-17.028-6.966-26.031-6.966c0,9.005,2.329,18.007,6.967,26.036c2.229-3.856,4.98-7.492,8.277-10.791
	C-676.336-401.391-672.704-404.145-668.848-406.372z"/>
<path fill="#FF7300" stroke="#FFFFFF" stroke-width="10" stroke-miterlimit="10" d="M-642.816-361.274
	c0-13.329-5.08-26.656-15.245-36.818c-3.297-3.299-6.931-6.053-10.787-8.279c-3.856,2.227-7.488,4.98-10.787,8.279
	c-3.297,3.298-6.048,6.935-8.277,10.791c2.229,3.856,4.98,7.488,8.277,10.783C-669.472-366.354-656.145-361.274-642.816-361.274z"/>
<path fill="#99FF00" stroke="#FFFFFF" stroke-width="10" stroke-miterlimit="10" d="M-687.912-335.242
	c-4.639,8.029-6.967,17.028-6.967,26.031c9.003,0,18.002-2.329,26.031-6.965c-3.856-2.227-7.49-4.981-10.787-8.279
	C-682.933-327.754-685.687-331.387-687.912-335.242z"/>
<path fill="#99FF00" stroke="#FFFFFF" stroke-width="10" stroke-miterlimit="10" d="M-642.816-361.274
	c-13.329,0-26.656,5.08-36.818,15.245c-3.299,3.297-6.052,6.931-8.277,10.787c2.225,3.855,4.979,7.488,8.277,10.787
	c3.296,3.298,6.931,6.052,10.787,8.279c3.856-2.227,7.49-4.981,10.787-8.279C-647.896-334.618-642.816-347.945-642.816-361.274z"/>
<path fill="#FFDA00" stroke="#FFFFFF" stroke-width="10" stroke-miterlimit="10" d="M-642.816-361.274
	c-13.329,0-26.656-5.08-36.818-15.245c-3.297-3.295-6.048-6.927-8.277-10.783c-9.276,16.063-9.278,36.005,0,52.06
	c2.225-3.856,4.979-7.49,8.277-10.787C-669.472-356.194-656.145-361.274-642.816-361.274z"/>
<text transform="matrix(1 0 0 1 538.8076 -390.1763)" font-family="'MontserratRoman-Medium'" font-size="144">VOID</text>
<text transform="matrix(1 0 0 1 515.0508 -329.8271)" font-family="'MontserratRoman-Light'" font-size="48">ENTERTAINMENT</text>
<radialGradient id="SVGID_5_" cx="602.9717" cy="-432.7842" r="49.1808" gradientTransform="matrix(1.0547 0 0 1.0431 33.257 10.4294)" gradientUnits="userSpaceOnUse">
	<stop  offset="0" style="stop-color:#92278F"/>
	<stop  offset="1" style="stop-color:#000000"/>
</radialGradient>
<ellipse fill="url(#SVGID_5_)" cx="669.212" cy="-441.007" rx="52.342" ry="50.831"/>
<radialGradient id="SVGID_6_" cx="529.8271" cy="-244.5459" r="49.1805" gradientTransform="matrix(1.0547 0 0 1.0431 33.257 10.4294)" gradientUnits="userSpaceOnUse">
	<stop  offset="0" style="stop-color:#92278F"/>
	<stop  offset="1" style="stop-color:#000000"/>
</radialGradient>
<ellipse fill="url(#SVGID_6_)" cx="592.066" cy="-244.656" rx="52.342" ry="50.831"/>
<g>
	<path fill="none" stroke="#FFFFFF" stroke-width="4" stroke-miterlimit="10" d="M599.934-192.398c0,0,14.997-19.102,3.438-35.973"
		/>
	<circle fill="#FFFFFF" cx="603.371" cy="-228.371" r="4.508"/>
</g>
<g>
	<path fill="none" stroke="#FFFFFF" stroke-width="4" stroke-miterlimit="10" d="M645.324-252.523c0,0-19.103-14.997-35.973-3.438"
		/>
	<circle fill="#FFFFFF" cx="609.352" cy="-255.96" r="4.508"/>
</g>
<g>
	<path fill="none" stroke="#FFFFFF" stroke-width="4" stroke-miterlimit="10" d="M584.199-296.914c0,0-14.997,19.103-3.438,35.973"
		/>
	<circle fill="#FFFFFF" cx="580.762" cy="-260.941" r="4.508"/>
</g>
<g>
	<path fill="none" stroke="#FFFFFF" stroke-width="4" stroke-miterlimit="10" d="M538.809-236.789c0,0,19.102,14.997,35.973,3.438"
		/>
	<circle fill="#FFFFFF" cx="574.781" cy="-233.351" r="4.508"/>
</g>
<radialGradient id="SVGID_7_" cx="754.7422" cy="-251.2764" r="50" gradientUnits="userSpaceOnUse">
	<stop  offset="0" style="stop-color:#000000"/>
	<stop  offset="0.1743" style="stop-color:#020202;stop-opacity:0.6659"/>
	<stop  offset="0.2454" style="stop-color:#090909;stop-opacity:0.5294"/>
	<stop  offset="0.2978" style="stop-color:#151515;stop-opacity:0.429"/>
	<stop  offset="0.3409" style="stop-color:#272727;stop-opacity:0.3462"/>
	<stop  offset="0.3784" style="stop-color:#3E3E3E;stop-opacity:0.2744"/>
	<stop  offset="0.412" style="stop-color:#5A5A5A;stop-opacity:0.21"/>
	<stop  offset="0.4426" style="stop-color:#7B7B7B;stop-opacity:0.1513"/>
	<stop  offset="0.4709" style="stop-color:#A2A2A2;stop-opacity:0.097"/>
	<stop  offset="0.4964" style="stop-color:#CDCDCD;stop-opacity:0.0482"/>
	<stop  offset="0.5203" style="stop-color:#FCFCFC;stop-opacity:0.0024"/>
	<stop  offset="0.5215" style="stop-color:#FFFFFF;stop-opacity:0"/>
	<stop  offset="0.525" style="stop-color:#F6F6F6;stop-opacity:0.0074"/>
	<stop  offset="0.5443" style="stop-color:#C8C8C8;stop-opacity:0.0477"/>
	<stop  offset="0.566" style="stop-color:#9D9D9D;stop-opacity:0.0931"/>
	<stop  offset="0.5894" style="stop-color:#777777;stop-opacity:0.1419"/>
	<stop  offset="0.6148" style="stop-color:#575757;stop-opacity:0.195"/>
	<stop  offset="0.6429" style="stop-color:#3B3B3B;stop-opacity:0.2537"/>
	<stop  offset="0.6746" style="stop-color:#252525;stop-opacity:0.32"/>
	<stop  offset="0.7117" style="stop-color:#141414;stop-opacity:0.3974"/>
	<stop  offset="0.7575" style="stop-color:#090909;stop-opacity:0.4931"/>
	<stop  offset="0.8217" style="stop-color:#020202;stop-opacity:0.6274"/>
	<stop  offset="1" style="stop-color:#000000"/>
</radialGradient>
<circle fill="url(#SVGID_7_)" cx="754.742" cy="-251.277" r="50"/>
<g>
	<ellipse fill="#FFFFFF" cx="1231.411" cy="-775.144" rx="52.342" ry="50.831"/>
	<g>
		<path fill="#FFFFFF" d="M1111.244-526.744l-45.217-100.8h5.473l43.632,97.488h-2.736l43.633-97.488h5.184l-45.216,100.8H1111.244z
			"/>
		<path fill="#FFFFFF" d="M1298.441-526.744v-100.8h4.897v100.8H1298.441z"/>
		<path fill="#FFFFFF" d="M1340.201-526.744v-100.8h38.88c10.751,0,20.11,2.185,28.08,6.552c7.968,4.369,14.185,10.32,18.647,17.856
			c4.465,7.537,6.697,16.199,6.697,25.991s-2.232,18.457-6.697,25.992c-4.463,7.538-10.68,13.489-18.647,17.856
			c-7.97,4.369-17.329,6.552-28.08,6.552H1340.201z M1345.098-531.208h33.696c9.886,0,18.504-1.967,25.848-5.904
			c7.344-3.936,13.007-9.359,16.991-16.271c3.983-6.912,5.977-14.832,5.977-23.761c0-8.928-1.993-16.848-5.977-23.76
			c-3.984-6.912-9.647-12.334-16.991-16.271c-7.344-3.936-15.962-5.904-25.848-5.904h-33.696V-531.208z"/>
	</g>
</g>
<g>
	<path fill="#FFFFFF" d="M1043.901-469.033h20.735v2.208h-23.184v-33.6h22.464v2.208h-20.016V-469.033z M1043.613-484.968h18.192
		v2.159h-18.192V-484.968z"/>
	<path fill="#FFFFFF" d="M1073.564-466.825v-33.6h2.064l23.952,30.575h-1.104v-30.575h2.448v33.6h-2.016l-24-30.576h1.104v30.576
		H1073.564z"/>
	<path fill="#FFFFFF" d="M1119.068-466.825v-31.392h-12.096v-2.208h26.64v2.208h-12.097v31.392H1119.068z"/>
	<path fill="#FFFFFF" d="M1142.107-469.033h20.736v2.208h-23.184v-33.6h22.464v2.208h-20.017V-469.033z M1141.82-484.968h18.191
		v2.159h-18.191V-484.968z"/>
	<path fill="#FFFFFF" d="M1171.771-466.825v-33.6h12.048c2.816,0,5.232,0.448,7.248,1.344c2.016,0.896,3.568,2.184,4.656,3.864
		c1.088,1.68,1.633,3.72,1.633,6.119c0,2.337-0.545,4.345-1.633,6.024s-2.641,2.976-4.656,3.888s-4.432,1.368-7.248,1.368h-10.704
		l1.104-1.151v12.144H1171.771z M1174.22-478.825l-1.104-1.152h10.704c3.615,0,6.359-0.799,8.232-2.399
		c1.871-1.6,2.809-3.84,2.809-6.721c0-2.911-0.938-5.159-2.809-6.743c-1.873-1.584-4.617-2.376-8.232-2.376h-10.704l1.104-1.2
		V-478.825z M1195.099-466.825l-8.734-12.192h2.783l8.736,12.192H1195.099z"/>
	<path fill="#FFFFFF" d="M1212.283-466.825v-31.392h-12.096v-2.208h26.64v2.208h-12.096v31.392H1212.283z"/>
	<path fill="#FFFFFF" d="M1225.579-466.825l15.456-33.6h2.447l15.456,33.6h-2.64l-14.592-32.064h1.056l-14.544,32.064H1225.579z
		 M1231.243-476.281l0.815-2.063h20.112l0.816,2.063H1231.243z"/>
	<path fill="#FFFFFF" d="M1265.035-466.825v-33.6h2.447v33.6H1265.035z"/>
	<path fill="#FFFFFF" d="M1279.195-466.825v-33.6h2.063l23.952,30.575h-1.104v-30.575h2.448v33.6h-2.016l-24-30.576h1.104v30.576
		H1279.195z"/>
	<path fill="#FFFFFF" d="M1318.267-466.825v-33.6h2.063l15.6,26.928h-1.104l15.552-26.928h2.017l0.048,33.6h-2.4l-0.048-29.904
		h0.672l-14.736,25.44h-1.199l-14.784-25.44h0.72v29.904H1318.267z"/>
	<path fill="#FFFFFF" d="M1366.602-469.033h20.736v2.208h-23.184v-33.6h22.464v2.208h-20.017V-469.033z M1366.313-484.968h18.192
		v2.159h-18.192V-484.968z"/>
	<path fill="#FFFFFF" d="M1396.266-466.825v-33.6h2.063l23.952,30.575h-1.104v-30.575h2.448v33.6h-2.016l-24-30.576h1.104v30.576
		H1396.266z"/>
	<path fill="#FFFFFF" d="M1441.77-466.825v-31.392h-12.096v-2.208h26.64v2.208h-12.096v31.392H1441.77z"/>
</g>
<radialGradient id="SVGID_8_" cx="1224.1807" cy="-590.5786" r="37.4998" gradientTransform="matrix(1.3911 0 0 1.3555 -477.3782 223.3857)" gradientUnits="userSpaceOnUse">
	<stop  offset="0" style="stop-color:#000000"/>
	<stop  offset="1" style="stop-color:#FFFFFF"/>
</radialGradient>
<ellipse fill="url(#SVGID_8_)" cx="1225.579" cy="-577.144" rx="52.167" ry="50.831"/>
<radialGradient id="SVGID_9_" cx="1277.7266" cy="-578.5205" r="0" gradientUnits="userSpaceOnUse">
	<stop  offset="0" style="stop-color:#000000"/>
	<stop  offset="1" style="stop-color:#FFFFFF"/>
</radialGradient>
<path fill="url(#SVGID_9_)" d="M1277.727-578.521"/>
<g>
	<g>
		<path fill="#131313" d="M1111.244-286.594l-45.217-100.8h5.473l43.632,97.488h-2.736l43.633-97.488h5.184l-45.216,100.8H1111.244z
			"/>
		<path fill="#6B6B6B" d="M1306.555-285.903v-100.8h4.897v100.8H1306.555z"/>
		<path fill="#131313" d="M1340.201-286.594v-100.8h38.88c10.751,0,20.11,2.185,28.08,6.552c7.968,4.369,14.185,10.32,18.647,17.856
			c4.465,7.537,6.697,16.199,6.697,25.991s-2.232,18.457-6.697,25.992c-4.463,7.538-10.68,13.489-18.647,17.856
			c-7.97,4.369-17.329,6.552-28.08,6.552H1340.201z M1345.098-291.058h33.696c9.886,0,18.504-1.967,25.848-5.904
			c7.344-3.936,13.007-9.359,16.991-16.271c3.983-6.912,5.977-14.832,5.977-23.761c0-8.928-1.993-16.848-5.977-23.76
			c-3.984-6.912-9.647-12.334-16.991-16.271c-7.344-3.936-15.962-5.904-25.848-5.904h-33.696V-291.058z"/>
	</g>
</g>
<g>
	<path fill="#131313" d="M1043.901-228.883h20.735v2.208h-23.184v-33.6h22.464v2.208h-20.016V-228.883z M1043.613-244.819h18.192
		v2.159h-18.192V-244.819z"/>
	<path fill="#131313" d="M1073.564-226.675v-33.6h2.064l23.952,30.575h-1.104v-30.575h2.448v33.6h-2.016l-24-30.576h1.104v30.576
		H1073.564z"/>
	<path fill="#131313" d="M1119.068-226.675v-31.392h-12.096v-2.208h26.64v2.208h-12.097v31.392H1119.068z"/>
	<path fill="#131313" d="M1142.107-228.883h20.736v2.208h-23.184v-33.6h22.464v2.208h-20.017V-228.883z M1141.82-244.819h18.191
		v2.159h-18.191V-244.819z"/>
	<path fill="#131313" d="M1171.771-226.675v-33.6h12.048c2.816,0,5.232,0.448,7.248,1.344c2.016,0.896,3.568,2.184,4.656,3.864
		c1.088,1.68,1.633,3.72,1.633,6.119c0,2.337-0.545,4.345-1.633,6.024s-2.641,2.976-4.656,3.888s-4.432,1.368-7.248,1.368h-10.704
		l1.104-1.151v12.144H1171.771z M1174.22-238.675l-1.104-1.152h10.704c3.615,0,6.359-0.799,8.232-2.399
		c1.871-1.6,2.809-3.84,2.809-6.721c0-2.911-0.938-5.159-2.809-6.743c-1.873-1.584-4.617-2.376-8.232-2.376h-10.704l1.104-1.2
		V-238.675z M1195.099-226.675l-8.734-12.192h2.783l8.736,12.192H1195.099z"/>
	<path fill="#131313" d="M1212.283-226.675v-31.392h-12.096v-2.208h26.64v2.208h-12.096v31.392H1212.283z"/>
	<path fill="#131313" d="M1225.579-226.675l15.456-33.6h2.447l15.456,33.6h-2.64l-14.592-32.064h1.056l-14.544,32.064H1225.579z
		 M1231.243-236.131l0.815-2.063h20.112l0.816,2.063H1231.243z"/>
	<path fill="#131313" d="M1265.035-226.675v-33.6h2.447v33.6H1265.035z"/>
	<path fill="#131313" d="M1279.195-226.675v-33.6h2.063l23.952,30.575h-1.104v-30.575h2.448v33.6h-2.016l-24-30.576h1.104v30.576
		H1279.195z"/>
	<path fill="#131313" d="M1318.267-226.675v-33.6h2.063l15.6,26.928h-1.104l15.552-26.928h2.017l0.048,33.6h-2.4l-0.048-29.904
		h0.672l-14.736,25.44h-1.199l-14.784-25.44h0.72v29.904H1318.267z"/>
	<path fill="#131313" d="M1366.602-228.883h20.736v2.208h-23.184v-33.6h22.464v2.208h-20.017V-228.883z M1366.313-244.819h18.192
		v2.159h-18.192V-244.819z"/>
	<path fill="#131313" d="M1396.266-226.675v-33.6h2.063l23.952,30.575h-1.104v-30.575h2.448v33.6h-2.016l-24-30.576h1.104v30.576
		H1396.266z"/>
	<path fill="#131313" d="M1441.77-226.675v-31.392h-12.096v-2.208h26.64v2.208h-12.096v31.392H1441.77z"/>
</g>
<path fill="#131313" d="M1242.308-353.268c14.927,26.258,13.665,55.141-2.816,64.51c-16.484,9.37-41.948-4.321-56.874-30.58
	c-14.925-26.257-13.664-55.14,2.819-64.51C1201.92-393.218,1227.382-379.525,1242.308-353.268z"/>
<path d="M1277.727-338.371"/>
<path fill="none" stroke="#898989" stroke-miterlimit="10" d="M1177.558-329.827c0,0,57.462-56.439,34.905-86.598"/>
<path fill="none" stroke="#898989" stroke-miterlimit="10" d="M1198.96-296.914c0,0,56.439-62.56,86.598-38.002"/>
<path fill="none" stroke="#898989" stroke-miterlimit="10" d="M1186.374-313.328c0,0,80.685-54.21,81.108-74.066"/>
<circle fill="#FFFFFF" stroke="#000000" stroke-width="0.25" stroke-miterlimit="10" cx="1752.907" cy="-515.424" r="20"/>
<circle cx="1752.907" cy="-515.424" r="10"/>
<circle fill="none" stroke="#000000" stroke-width="0.25" stroke-miterlimit="10" cx="1639.574" cy="-518.757" r="50"/>
<circle fill="#FFFFFF" stroke="#000000" stroke-width="0.25" stroke-miterlimit="10" cx="1639.574" cy="-518.757" r="40"/>
<circle fill="none" stroke="#000000" stroke-width="0.25" stroke-miterlimit="10" cx="1639.574" cy="-518.757" r="30"/>
<circle fill="#FFFFFF" stroke="#000000" stroke-width="0.25" stroke-miterlimit="10" cx="1639.574" cy="-518.757" r="20"/>
<circle cx="1639.574" cy="-518.757" r="10"/>
<g>
	<path stroke="#FFFFFF" stroke-width="0.25" stroke-miterlimit="10" d="M1948.382-407.573c6.358,12.156,17.358,19.156,29.358,21.156
		c15,1,29-9,30-24c1-8-2-16-10-20c-6-3-14-3-20,1c-1-6,5-9,10-10c13-2,24,6,29,17c5,13,0,27-9,36c-9,8-20,12-32,11
		c-15-2-28-11-35.843-23.603c-3.54-4.884-5.271-5.481-6.793-5.526c-21.364,0.129-38.364-14.871-46.364-32.871
		c-0.833-2.083-1.507-4.194-2.027-6.32c-0.092-1.151,0.234-2.48,1.241-4.265c23.786-13.415,31.786-46.415,14.786-68.415
		c-10-12-24-19-40-16c-15,3-26,14-30,28c-5,22,13,41,34,41c-11,1-23-2-30-11c-9-12-11-28-3-42c7-12,19-19,32-21
		c19-2,36,9,45.262,24.352c2.248,4.031,3.837,6.4,6.201,11.839c2.107-0.89,4.287-1.628,6.537-2.191
		c23.625-6.125,48.016,6.125,57.652,27.039c1.314,2.992,2.328,6.161-2.502,10.185c-20.15,6.776-35.15,28.776-30.773,50.994
		C1946.669-412.551,1947.445-410.024,1948.382-407.573z"/>
	<path fill="#FFFFFF" stroke="#000000" stroke-width="0.25" stroke-miterlimit="10" d="M1972.802-466.011
		c-20.062,9.595-34.062,29.595-28.062,52.595c6,22,30,36,51,25c15-8,19-28,10-42c14,7,12,27,4,39c-12,16-33,19-50,10
		c-12-7-19-19-25.27-31.22c-1.843-0.825-3.537-1.06-5.23-1.53c-10-1.25-19.5-6.25-26.5-14.25c-2.333-2.667-4.223-5.583-5.686-8.662
		s-2.5-6.319-3.129-9.634c-0.186-1.704-1.186-4.704-0.186-5.704c22-22,23-60-5-76c-17-9-39-6-52,8c11-17,34-19,51-12
		c13,7,22,20,25.95,33.97c1.176,3.515,1.976,4.579,2.81,6.287c18.254-7.807,40.791-1.25,51.845,16.117
		C1970.266-472.902,1971.778-469.517,1972.802-466.011z"/>
	<path d="M1959.949-470.998c0.982,1.382,1.814,2.829,2.5,4.323c-0.626,2.301-1.254,4.574-6.727,10.407
		c-16.982,16.851-17.982,46.851,0.018,63.851c14,12,34,12,49,2c-9,10-22,14-35,11c-18-5-31-20-33.373-37.695
		c-1.393-5.59-2.712-6.56-4.063-6.939c-13.842-1.227-26.064-11.366-28.564-26.366c-0.333-2.5-0.361-4.944-0.115-7.306
		c0.245-2.361,0.764-4.639,1.522-6.806c2.593-3.889,2.593-9.889,7.186-11.444c1.593-1.611,3.361-3.056,5.272-4.306
		c1.912-1.25,3.968-2.305,6.135-3.139c11-3,22-1,30.865,6.208C1956.639-475.395,1958.446-473.306,1959.949-470.998z"/>
	<path fill="#FFFFFF" stroke="#000000" stroke-width="0.25" stroke-miterlimit="10" d="M1948.292-469.681
		c2.362,2.316,4.134,4.991,5.29,7.825c0.441,1.569,0.521,3.335,0.199,5.42c-16.041,18.019-17.041,45.019-2.041,64.019
		c-10-8-13-20-14.291-32.225c-0.491-9.055-2.876-9.256-5.265-9.627c-9.556-1.481-17.777-9.481-18.444-20.148
		c0-14,15-23,27.54-19.164C1943.812-472.771,1946.209-471.461,1948.292-469.681z"/>
	<path d="M1939.942-463.44c6.798,5.024,6.798,14.024-0.202,18.024c-4,3-9,1-12-2c-5-3-3-15,4.589-16.301
		C1934.729-464.579,1937.459-464.559,1939.942-463.44z"/>
</g>
<circle cx="1607.741" cy="-480.083" r="2.5"/>
<circle cx="1602.741" cy="-534.416" r="2.5"/>
<circle cx="1669.574" cy="-517.083" r="2.5"/>
<circle cx="1653.574" cy="-532.924" r="2.5"/>
<radialGradient id="SVGID_10_" cx="216.9346" cy="-264.6987" r="36.3321" gradientUnits="userSpaceOnUse">
	<stop  offset="0" style="stop-color:#FFFFFF"/>
	<stop  offset="0.658" style="stop-color:#585858"/>
	<stop  offset="1" style="stop-color:#000000"/>
</radialGradient>
<path fill="url(#SVGID_10_)" d="M238.247-291.122c-12.82-7.714-29.82-3.714-39.82,7.286c-11,13-10,31,3,40c9,7,20,7,29,1
	c12-9,9-25-2-33c11,9,9,25-3,32c-11,5-23,0-28-10c-3-7-4-14-1-21c5-11,17-18,30-16c19,3,31,24,24,42c7-18-5-39-24-42
	c-16-2-32,10-31,26c1,11,10,23,22,21c-7-1-12-5-16-11c-7-13,1-29,16-32c13-3,25,5,30,17c7,17-5,36-21,41c-21,6-42-10-45-31
	c2,19,19,33,38,32c13-1,23-9,28-21c4-9,2-19-3-28c-8-11-21-14-33-8c-10,5-13,17-10,27c-3-9,2-21,11-25c13-6,28,2,33,15
	c4,11-1,22-9,30c-17,15-43,5-50-15c-8-22,7-47,30-49c-19,3-34,21-32,41c2,13,10,24,23,28c8,3,17,2,24-2c11-6,17-20,13-32
	s-17-21-30-16c8-2,16,2,22,8s9,15,6,23c-5,12-17,19-29,18c-13-1-23-11-26-24c-3-16,5-31,20-38c7-3,14-3,21-3c-18-1-37,9-40,28
	c-2,14,4,26,15,33s24,3,33-6c9-10,9-26-3-33c-7-4-16-4-22,1c13-8,30,4,28,18s-16,22-29,19c-7-2-12-6-16-11c-7-12-5-26,5-36
	c9-9,22-12,34.39-7.063C236.859-291.788,238.247-291.122,238.247-291.122z"/>
</svg>
