<?xml version="1.0" standalone="no"?>
<!DOCTYPE svg PUBLIC "-//W3C//DTD SVG 20010904//EN"
 "http://www.w3.org/TR/2001/REC-SVG-20010904/DTD/svg10.dtd">
<svg version="1.0" xmlns="http://www.w3.org/2000/svg"
 width="1000.000000pt" height="1000.000000pt" viewBox="0 0 1000.000000 1000.000000"
 preserveAspectRatio="xMidYMid meet">
<metadata>
Created by potrace 1.14, written by Peter Selinger 2001-2017
</metadata>
<g transform="translate(0.000000,1000.000000) scale(0.100000,-0.100000)"
fill="#000000" stroke="none">
<path d="M0 5000 l0 -5000 5000 0 5000 0 0 5000 0 5000 -5000 0 -5000 0 0
-5000z m4540 1600 c429 -53 776 -352 886 -765 15 -56 19 -106 19 -245 0 -203
-14 -269 -90 -427 -330 -681 -1280 -785 -1758 -193 -122 151 -198 339 -216
531 -39 417 182 806 564 994 198 98 385 130 595 105z m-2653 -937 c229 -513
419 -933 422 -933 3 0 193 420 422 933 l415 932 53 3 c31 2 52 -1 50 -7 -2 -5
-204 -458 -449 -1005 l-445 -997 -50 3 -49 3 -448 1000 c-246 550 -448 1001
-448 1003 0 2 25 2 56 0 l55 -3 416 -932z m4193 -68 l0 -1005 -50 0 -50 0 0
1005 0 1005 50 0 50 0 0 -1005z m1775 978 c412 -93 702 -389 771 -786 20 -111
14 -347 -10 -445 -83 -332 -323 -590 -651 -697 -146 -47 -245 -55 -719 -55
l-436 0 0 1006 0 1006 478 -5 c434 -3 485 -6 567 -24z m-6535 -2533 c0 -19 -7
-20 -200 -20 l-200 0 0 -130 0 -130 178 -2 c169 -3 177 -4 177 -23 0 -19 -8
-20 -177 -23 l-178 -2 0 -135 0 -135 205 0 205 0 0 -25 0 -25 -227 2 -228 3
-3 333 -2 332 225 0 c218 0 225 -1 225 -20z m440 -242 c113 -144 212 -272 220
-285 8 -13 18 -23 23 -23 4 0 6 128 5 285 l-3 285 23 0 22 0 0 -335 c0 -312
-1 -335 -17 -335 -12 0 -102 108 -243 289 l-225 290 -5 -287 -5 -287 -22 -3
-23 -3 0 335 0 336 23 0 c18 0 66 -56 227 -262z m940 242 c0 -19 -7 -20 -120
-20 l-120 0 0 -316 0 -315 -22 3 -23 3 -3 313 -2 312 -120 0 c-113 0 -120 1
-120 20 0 19 7 20 265 20 258 0 265 -1 265 -20z m570 0 c0 -19 -7 -20 -200
-20 l-200 0 0 -130 0 -130 180 0 180 0 0 -25 0 -25 -180 0 -180 0 0 -135 0
-135 205 0 205 0 0 -25 0 -25 -227 2 -228 3 -3 333 -2 332 225 0 c218 0 225
-1 225 -20z m541 10 c113 -32 173 -130 155 -254 -11 -70 -43 -109 -132 -162
-16 -9 -10 -21 64 -125 73 -101 80 -114 62 -117 -29 -5 -36 2 -121 123 -60 85
-78 104 -94 100 -11 -2 -68 -5 -127 -5 l-108 0 0 -110 0 -110 -25 0 -25 0 0
335 0 335 158 0 c86 0 173 -5 193 -10z m749 -10 c0 -18 -8 -20 -120 -22 l-121
-3 -2 -310 -2 -310 -22 -3 -23 -3 0 315 0 316 -120 0 c-113 0 -120 1 -120 20
0 19 7 20 265 20 257 0 265 -1 265 -20z m476 -299 c79 -173 146 -323 150 -333
4 -14 0 -18 -19 -18 -21 0 -30 13 -68 95 l-43 95 -193 0 -194 0 -44 -95 c-39
-85 -47 -95 -71 -95 -14 0 -24 4 -22 8 2 5 71 156 153 336 148 323 150 327
178 324 27 -3 36 -19 173 -317z m324 -17 l0 -335 -22 3 -23 3 -3 333 -2 332
25 0 25 0 0 -336z m505 51 l220 -284 3 285 2 284 25 0 25 0 0 -335 c0 -321 -1
-335 -19 -335 -12 0 -92 94 -245 290 -125 160 -229 290 -232 290 -2 0 -4 -129
-4 -287 1 -284 1 -288 -19 -291 -21 -3 -21 -1 -21 332 l0 336 23 -1 c17 0 72
-65 242 -284z m690 45 c76 -132 143 -246 149 -255 9 -12 39 34 156 240 122
213 149 254 168 255 l22 0 0 -336 0 -335 -22 3 -23 3 -3 284 -2 284 -131 -229
c-139 -243 -153 -264 -168 -249 -5 6 -66 109 -136 230 -70 121 -131 224 -136
230 -5 5 -9 -108 -9 -274 l0 -282 -22 3 -23 3 -3 333 -2 332 24 0 c20 0 42
-33 161 -240z m1175 220 c0 -19 -7 -20 -200 -20 l-200 0 0 -130 0 -130 180 0
180 0 0 -25 0 -25 -180 0 -180 0 0 -135 0 -135 208 -2 c199 -3 207 -4 207 -23
0 -19 -7 -20 -230 -20 l-230 0 -3 333 -2 332 225 0 c218 0 225 -1 225 -20z
m461 -267 l224 -286 3 286 2 287 25 0 25 0 -2 -332 c-3 -325 -3 -333 -23 -333
-14 0 -85 83 -245 287 l-225 288 -3 -291 -2 -290 -23 3 -22 3 -3 333 -2 332
23 0 c20 0 67 -55 248 -287z m929 267 c0 -19 -7 -20 -120 -20 l-120 0 -2 -312
-3 -313 -22 -3 -23 -3 0 315 0 316 -120 0 c-113 0 -120 1 -120 20 0 19 7 20
265 20 258 0 265 -1 265 -20z"/>
<path d="M4345 6030 c-103 -21 -198 -73 -258 -139 -19 -21 -52 -73 -72 -115
-77 -155 -55 -328 60 -467 109 -130 274 -183 448 -145 132 30 235 113 298 242
33 66 34 74 34 184 0 109 -2 119 -32 183 -62 129 -179 222 -320 252 -75 16
-99 17 -158 5z"/>
<path d="M6910 5594 l0 -915 428 4 c471 4 498 7 658 72 212 85 369 233 463
437 66 141 76 197 75 408 0 173 -2 191 -28 275 -105 343 -371 564 -746 621
-70 10 -196 14 -472 14 l-378 0 0 -916z"/>
<path d="M3510 3840 l0 -180 133 0 c143 0 189 12 234 61 64 70 56 191 -16 252
-45 38 -90 47 -228 47 l-123 0 0 -180z"/>
<path d="M4778 3827 c-42 -95 -80 -180 -83 -189 -7 -17 5 -18 164 -18 96 0
171 4 171 9 0 14 -163 371 -169 371 -3 0 -41 -78 -83 -173z"/>
</g>
</svg>
